<svg id="Layer_1" data-name="Layer 1" xmlns="http://www.w3.org/2000/svg" viewBox="0 0 1000 1000"><defs><style>.cls-1{fill:#ab3b24;}.cls-2{fill:#8e2c1d;}.cls-3{fill:#531410;}.cls-4{fill:#a94624;}.cls-5{fill:#89291b;}.cls-6{fill:#a84424;}.cls-7{fill:#772115;}.cls-8{fill:#88231a;}.cls-9{fill:#b85227;}.cls-10{fill:#bc5127;}.cls-11{fill:#69170e;}.cls-12{fill:#d86c27;}.cls-13{fill:#9c3d21;}.cls-14{fill:#bf5427;}.cls-15{fill:#b14d26;}.cls-16{fill:#c45927;}.cls-17{fill:#b74826;}.cls-18{fill:#8a2a1b;}.cls-19{fill:none;stroke:#231f20;stroke-miterlimit:10;}.cls-20{fill:#832619;}.cls-21{fill:#9b4021;}.cls-22{fill:#ac4c25;}.cls-23{fill:#db6b27;}.cls-24{fill:#85261a;}.cls-25{fill:#b54e26;}.cls-26{fill:#69120e;}.cls-27{fill:#ab4725;}.cls-28{fill:#a43f23;}.cls-29{fill:#c96128;}.cls-30{fill:#94311f;}.cls-31{fill:#ae4425;}.cls-32{fill:#802018;}.cls-33{fill:#94311e;}.cls-34{fill:#812018;}.cls-35{fill:#791615;}.cls-36{fill:#6e1110;}.cls-37{fill:#d26628;}.cls-38{fill:#8f2e1d;}.cls-39{fill:#8f2a1d;}.cls-40{fill:#a14022;}.cls-41{fill:#a23c22;}.cls-42{fill:#89251b;}.cls-43{fill:#83371b;}.cls-44{fill:#c75427;}.cls-45{fill:#902e1d;}.cls-46{fill:#b54726;}.cls-47{fill:#c25227;}.cls-48{fill:#af3e24;}.cls-49{fill:#8c241c;}.cls-50{fill:#7c1c16;}.cls-51{fill:#af4025;}.cls-52{fill:#a53222;}.cls-53{fill:#58150e;}.cls-54{fill:#69140f;}.cls-55{fill:#8f241d;}.cls-56{fill:#771a14;}.cls-57{fill:#832019;}.cls-58{fill:#781c15;}.cls-59{fill:#93391f;}.cls-60{fill:#a33e23;}.cls-61{fill:#902f1d;}.cls-62{fill:#a23d22;}.cls-63{fill:#63120e;}.cls-64{fill:#b95427;}.cls-65{fill:#b04b25;}.cls-66{fill:#862219;}.cls-67{fill:#a94824;}.cls-68{fill:#9c3f21;}.cls-69{fill:#cf6728;}.cls-70{fill:#942a1e;}.cls-71{fill:#b24825;}.cls-72{fill:#771f15;}.cls-73{fill:#86231a;}.cls-74{fill:#af3c24;}.cls-75{fill:#8c261c;}.cls-76{fill:#6f1410;}.cls-77{fill:#91351e;}.cls-78{fill:#7b2016;}.cls-79{fill:#68150d;}.cls-80{fill:#a74e24;}.cls-81{fill:#ba4b27;}.cls-82{fill:#802818;}.cls-83{fill:#b44a26;}.cls-84{fill:#cb6228;}.cls-85{fill:#d87527;}.cls-86{fill:#94361f;}.cls-87{fill:#772215;}.cls-88{fill:#752514;}.cls-89{fill:#7e2c18;}.cls-90{fill:#984221;}.cls-91{fill:#983c20;}.cls-92{fill:#7a2416;}.cls-93{fill:#7a2616;}.cls-94{fill:#b64b26;}.cls-95{fill:#8a291b;}.cls-96{fill:#9c2920;}.cls-97{fill:#9c3a21;}.cls-98{fill:#842119;}.cls-99{fill:#84271a;}.cls-100{fill:#a24223;}.cls-101{fill:#802b19;}.cls-102{fill:#89281b;}.cls-103{fill:#86281a;}.cls-104{fill:#751c14;}.cls-105{fill:#a73f23;}.cls-106{fill:#9d3521;}.cls-107{fill:#97311f;}.cls-108{fill:#761a14;}.cls-109{fill:#771e14;}.cls-110{fill:#a93924;}.cls-111{fill:#741413;}.cls-112{fill:#822419;}.cls-113{fill:#c05827;}.cls-114{fill:#a24423;}.cls-115{fill:#dd6326;}.cls-116{fill:#e36b25;}.cls-117{fill:#9c3720;}.cls-118{fill:#b05826;}.cls-119{fill:#a23e22;}.cls-120{fill:#f99d1e;}.cls-121{fill:#cd6a28;}.cls-122{fill:#9a3420;}.cls-123{fill:#91311e;}.cls-124{fill:#8c291c;}.cls-125{fill:#902c1d;}.cls-126{fill:#902d1d;}.cls-127{fill:#8a241b;}.cls-128{fill:#97331f;}.cls-129{fill:#8a271b;}.cls-130{fill:#d76027;}.cls-131{fill:#6b2611;}.cls-132{fill:#9c2620;}.cls-133{fill:#761713;}.cls-134{fill:#983020;}.cls-135{fill:#8a231b;}.cls-136{fill:#9f2420;}.cls-137{fill:#a53e23;}.cls-138{fill:#a74924;}.cls-139{fill:#be6a28;}.cls-140{fill:#d06728;}.cls-141{fill:#c15827;}.cls-142{fill:#943f1f;}.cls-143{fill:#b24b26;}.cls-144{fill:#a13c22;}.cls-145{fill:#cb6528;}.cls-146{fill:#f78e24;}.cls-147{fill:#e08626;}.cls-148{fill:#8d2d1c;}.cls-149{fill:#aa4b25;}.cls-150{fill:#7e2618;}.cls-151{fill:#62120d;}.cls-152{fill:#933b1f;}.cls-153{fill:#712513;}.cls-154{fill:#8e301d;}.cls-155{fill:#9e3921;}.cls-156{fill:#8e351d;}.cls-157{fill:#812719;}.cls-158{fill:#771d14;}.cls-159{fill:#9f3621;}.cls-160{fill:#842219;}.cls-161{fill:#7d1916;}.cls-162{fill:#8e2b1d;}.cls-163{fill:#c74f27;}.cls-164{fill:#781814;}.cls-165{fill:#9d3321;}.cls-166{fill:#c05527;}.cls-167{fill:#842619;}.cls-168{fill:#a04022;}.cls-169{fill:#8f311d;}.cls-170{fill:#a13e22;}.cls-171{fill:#7e2217;}.cls-172{fill:#702012;}.cls-173{fill:#eca021;}.cls-174{fill:#d36c28;}.cls-175{fill:#c65c28;}.cls-176{fill:#ba6928;}.cls-177{fill:#e58924;}.cls-178{fill:#a84224;}.cls-179{fill:#ab4224;}.cls-180{fill:#86281b;}.cls-181{fill:#eb7b23;}.cls-182{fill:#5b0f0d;}.cls-183{fill:#c25527;}.cls-184{fill:#8b2b1c;}.cls-185{fill:#da8b27;}.cls-186{fill:#f89624;}.cls-187{fill:#faa31b;}.cls-188{fill:#ebb220;}.cls-189{fill:#bb5327;}.cls-190{fill:#cd6b28;}.cls-191{fill:#a64023;}.cls-192{fill:#85281a;}.cls-193{fill:#c15c27;}.cls-194{fill:#87271a;}.cls-195{fill:#9a3a21;}.cls-196{fill:#882b1b;}.cls-197{fill:#d87427;}.cls-198{fill:#bd5527;}.cls-199{fill:#cb6a28;}.cls-200{fill:#98311f;}.cls-201{fill:#96331f;}.cls-202{fill:#9f3721;}.cls-203{fill:#9d3621;}.cls-204{fill:#dc6b26;}.cls-205{fill:#6f1b11;}.cls-206{fill:#95311f;}.cls-207{fill:#8f251d;}.cls-208{fill:#a13a22;}.cls-209{fill:#dd5726;}.cls-210{fill:#771914;}.cls-211{fill:#c26128;}.cls-212{fill:#94341f;}.cls-213{fill:#953c1f;}.cls-214{fill:#b34e26;}.cls-215{fill:#aa4724;}.cls-216{fill:#b54d26;}.cls-217{fill:#c85b27;}.cls-218{fill:#aa4124;}.cls-219{fill:#a83423;}.cls-220{fill:#90351e;}.cls-221{fill:#9f3d22;}.cls-222{fill:#993420;}.cls-223{fill:#a73e23;}.cls-224{fill:#b04125;}.cls-225{fill:#b43825;}.cls-226{fill:#b44225;}.cls-227{fill:#9c3521;}.cls-228{fill:#b23f25;}.cls-229{fill:#792216;}.cls-230{fill:#a64223;}.cls-231{fill:#ab3924;}.cls-232{fill:#a83623;}.cls-233{fill:#c74d27;}.cls-234{fill:#9d2d21;}.cls-235{fill:#a83723;}.cls-236{fill:#8d201c;}.cls-237{fill:#a42b22;}.cls-238{fill:#a33222;}.cls-239{fill:#b64726;}.cls-240{fill:#c64e27;}.cls-241{fill:#ad3624;}</style></defs><title>mars</title><g id="Back"><polygon class="cls-1" points="271.33 60.55 331.63 30.27 422.08 0 542.67 0 663.26 30.27 783.73 90.82 874.17 181.64 964.62 302.73 994.77 393.55 994.77 544.91 994.77 605.45 895.1 827.87 783.73 935.83 653.17 1000 512.52 999 391.93 999 271.33 938.45 241.19 908.18 120.59 817.36 30.15 635.73 0 484.36 60.3 272.45 120.59 181.64 180.89 121.09 271.33 60.55"/><polygon class="cls-2" points="602.97 211.91 482.37 181.64 512.52 272.45 602.97 211.91"/><polygon class="cls-3" points="482.37 181.64 452.22 151.36 391.93 211.91 452.22 211.91 482.37 181.64"/><polygon class="cls-4" points="572.82 30.27 572.82 90.82 512.52 90.82 572.82 30.27"/><polygon class="cls-5" points="542.67 151.36 482.37 181.64 602.97 211.91 542.67 151.36"/><polygon class="cls-6" points="452.22 30.27 572.82 30.27 512.52 90.82 452.22 30.27"/><polygon class="cls-7" points="452.22 151.36 482.37 181.64 512.52 90.82 452.22 151.36"/><polygon class="cls-8" points="512.52 90.82 452.22 151.36 422.08 121.09 512.52 90.82"/><polygon class="cls-9" points="391.93 211.91 512.52 272.45 452.22 211.91 391.93 211.91"/><polygon class="cls-10" points="422.08 121.09 512.52 90.82 452.22 30.27 422.08 121.09"/><polygon class="cls-11" points="482.37 181.64 452.22 211.91 512.52 272.45 482.37 181.64"/><polygon class="cls-12" points="452.22 30.27 422.08 60.55 422.08 121.09 452.22 30.27"/><polygon class="cls-13" points="512.52 90.82 542.67 151.36 482.37 181.64 512.52 90.82"/><polygon class="cls-14" points="572.82 90.82 542.67 151.36 512.52 90.82 572.82 90.82"/><polygon class="cls-15" points="602.97 211.91 572.82 90.82 542.67 151.36 602.97 211.91"/><polygon class="cls-16" points="572.82 30.27 633.11 60.55 572.82 90.82 572.82 30.27"/><polygon class="cls-17" points="633.11 60.55 633.11 121.09 572.82 90.82 633.11 60.55"/><polygon class="cls-18" points="633.11 121.09 602.97 211.91 572.82 90.82 633.11 121.09"/><path class="cls-19" d="M633.11,272.45"/><polygon class="cls-20" points="422.08 121.09 391.93 211.91 452.22 151.36 422.08 121.09"/><polygon class="cls-21" points="361.78 121.09 361.78 60.55 422.08 121.09 361.78 121.09"/><polygon class="cls-22" points="422.08 121.09 361.78 121.09 331.63 181.64 422.08 121.09"/><polygon class="cls-23" points="422.08 121.09 422.08 0 331.63 30.27 422.08 121.09"/><polygon class="cls-24" points="512.52 272.45 602.97 272.45 542.67 363.27 512.52 272.45"/><polygon class="cls-25" points="422.08 121.09 331.63 181.64 391.93 211.91 422.08 121.09"/><path class="cls-19" d="M633.11,211.91"/><polygon class="cls-26" points="512.52 272.45 482.37 333 542.67 363.27 512.52 272.45"/><polygon class="cls-27" points="512.52 272.45 452.22 393.55 452.22 302.73 512.52 272.45"/><polygon class="cls-28" points="512.52 272.45 452.22 242.18 452.22 302.73 512.52 272.45"/><polygon class="cls-29" points="452.22 242.18 391.93 211.91 391.93 272.45 452.22 242.18"/><polygon class="cls-30" points="452.22 242.18 331.63 302.73 391.93 302.73 452.22 242.18"/><polygon class="cls-31" points="452.22 242.18 452.22 333 361.78 333 452.22 242.18"/><path class="cls-19" d="M301.48,484.36"/><polygon class="cls-32" points="452.22 333 391.93 393.55 452.22 393.55 452.22 333"/><polygon class="cls-33" points="452.22 333 391.93 333 391.93 393.55 452.22 333"/><polygon class="cls-34" points="512.52 272.45 602.97 211.91 572.82 272.45 512.52 272.45"/><polygon class="cls-35" points="572.82 272.45 633.11 272.45 602.97 211.91 572.82 272.45"/><path class="cls-19" d="M633.11,363.27"/><polygon class="cls-36" points="633.11 151.36 633.11 272.45 663.26 211.91 633.11 151.36"/><polygon class="cls-37" points="633.11 60.55 693.28 151.36 633.11 151.36 633.11 60.55"/><polygon class="cls-38" points="633.11 121.09 602.97 211.91 633.11 272.45 633.11 121.09"/><polygon class="cls-39" points="633.11 151.36 663.26 211.91 693.28 151.36 633.11 151.36"/><polygon class="cls-40" points="422.08 0 482.37 0 422.08 60.55 422.08 0"/><polygon class="cls-41" points="452.22 30.27 512.52 0 572.82 30.27 452.22 30.27"/><polygon class="cls-42" points="482.37 333 542.67 363.27 482.37 393.55 482.37 333"/><path class="cls-19" d="M663.26,30.27"/><polygon class="cls-43" points="542.67 0 663.26 30.27 572.82 30.27 542.67 0"/><polygon class="cls-44" points="572.82 30.27 633.11 60.55 663.26 30.27 572.82 30.27"/><polygon class="cls-45" points="693.28 151.36 663.26 211.91 753.58 242.18 693.28 151.36"/><polygon class="cls-46" points="663.26 30.27 723.43 60.55 633.11 60.55 663.26 30.27"/><polygon class="cls-47" points="693.28 151.36 723.43 90.82 633.11 60.55 693.28 151.36"/><polygon class="cls-48" points="633.11 60.55 723.43 60.55 723.43 90.82 633.11 60.55"/><polygon class="cls-49" points="693.28 151.36 753.58 242.18 753.58 211.91 693.28 151.36"/><path class="cls-19" d="M723.43,181.64"/><polygon class="cls-50" points="693.28 151.36 753.58 151.36 753.58 211.91 693.28 151.36"/><path class="cls-19" d="M783.73,242.18"/><polygon class="cls-51" points="693.28 151.36 783.73 151.36 723.43 90.82 693.28 151.36"/><polygon class="cls-52" points="723.43 90.82 723.43 60.55 783.73 151.36 723.43 90.82"/><polygon class="cls-53" points="753.58 242.18 663.26 211.91 693.28 272.45 753.58 242.18"/><polygon class="cls-54" points="663.26 211.91 602.97 333 633.11 333 663.26 211.91"/><polygon class="cls-55" points="663.26 211.91 633.11 333 693.28 272.45 663.26 211.91"/><polygon class="cls-56" points="633.11 272.45 602.97 272.45 542.67 363.27 633.11 272.45"/><polygon class="cls-57" points="482.37 333 422.08 454.09 482.37 454.09 482.37 333"/><polygon class="cls-58" points="452.22 393.55 361.78 393.55 422.08 454.09 452.22 393.55"/><polygon class="cls-34" points="633.11 272.45 542.67 363.27 572.82 393.55 633.11 272.45"/><polygon class="cls-59" points="391.93 272.45 301.48 272.45 331.63 302.73 391.93 272.45"/><polygon class="cls-60" points="391.93 333 301.48 333 361.78 393.55 391.93 393.55 391.93 333"/><polygon class="cls-61" points="391.93 211.91 331.63 272.45 331.63 181.64 391.93 211.91"/><polygon class="cls-62" points="391.93 211.91 391.93 272.45 331.63 272.45 391.93 211.91"/><polygon class="cls-63" points="753.58 151.36 813.88 151.36 813.88 211.91 753.58 151.36"/><polygon class="cls-64" points="361.78 121.09 361.78 60.55 301.48 90.82 361.78 121.09"/><polygon class="cls-65" points="361.78 121.09 271.33 151.36 271.33 181.64 361.78 121.09"/><polygon class="cls-66" points="753.58 151.36 813.88 211.91 753.58 211.91 753.58 151.36"/><polygon class="cls-67" points="361.78 121.09 301.48 90.82 271.33 151.36 361.78 121.09"/><polygon class="cls-68" points="361.78 121.09 331.63 181.64 271.33 211.91 271.33 181.64 361.78 121.09"/><polygon class="cls-69" points="813.88 211.91 904.32 302.73 813.88 272.45 813.88 211.91"/><path class="cls-19" d="M271.33,272.45"/><polygon class="cls-70" points="753.58 211.91 753.58 302.73 813.88 211.91 753.58 211.91"/><polygon class="cls-71" points="813.88 211.91 813.88 272.45 753.58 302.73 813.88 211.91"/><polygon class="cls-72" points="813.88 211.91 813.88 151.36 874.17 272.45 813.88 211.91"/><path class="cls-19" d="M783.73,333"/><polygon class="cls-73" points="904.32 302.73 753.58 302.73 813.88 272.45 904.32 302.73"/><path class="cls-19" d="M783.73,363.27"/><polygon class="cls-74" points="693.28 272.45 753.58 242.18 753.58 333 693.28 272.45"/><polygon class="cls-75" points="693.28 272.45 693.28 363.27 753.58 333 693.28 272.45"/><polygon class="cls-76" points="693.28 272.45 633.11 333 693.28 393.55 693.28 272.45"/><path class="cls-19" d="M753.58,454.09"/><polygon class="cls-77" points="723.43 60.55 783.73 90.82 783.73 151.36 723.43 60.55"/><polygon class="cls-78" points="783.73 90.82 783.73 151.36 844.03 151.36 783.73 90.82"/><polygon class="cls-79" points="271.33 60.55 180.89 121.09 211.04 181.64 271.33 60.55"/><polygon class="cls-80" points="331.63 272.45 331.63 181.64 211.04 242.18 301.48 272.45 331.63 272.45"/><polygon class="cls-81" points="211.04 242.18 211.04 181.64 271.33 211.91 211.04 242.18"/><polygon class="cls-82" points="211.04 181.64 271.33 211.91 271.33 60.55 211.04 181.64"/><polygon class="cls-83" points="271.33 60.55 271.33 151.36 301.48 90.82 271.33 60.55"/><polygon class="cls-84" points="331.63 30.27 361.78 60.55 301.48 90.82 331.63 30.27"/><polygon class="cls-85" points="301.48 90.82 331.63 30.27 271.33 60.55 301.48 90.82"/><polygon class="cls-86" points="391.93 302.73 331.63 302.73 361.78 333 391.93 302.73"/><polygon class="cls-87" points="361.78 333 271.33 333 331.63 302.73 361.78 333"/><polygon class="cls-88" points="331.63 302.73 301.48 272.45 271.33 333 331.63 302.73"/><polygon class="cls-89" points="301.48 272.45 241.19 393.55 241.19 302.73 301.48 272.45"/><polygon class="cls-90" points="301.48 272.45 211.04 242.18 241.19 302.73 301.48 272.45"/><polygon class="cls-91" points="211.04 242.18 241.19 302.73 241.19 393.55 211.04 242.18"/><polygon class="cls-92" points="241.19 393.55 271.33 333 301.48 423.82 241.19 393.55"/><polygon class="cls-93" points="271.33 333 301.48 423.82 301.48 333 271.33 333"/><path class="cls-19" d="M301.48,333"/><polygon class="cls-94" points="301.48 454.09 301.48 333 331.63 393.55 301.48 454.09"/><polygon class="cls-95" points="301.48 333 331.63 393.55 422.08 454.09 301.48 333"/><polygon class="cls-96" points="813.88 151.36 844.03 151.36 874.17 272.45 813.88 151.36"/><polygon class="cls-97" points="331.63 393.55 271.33 514.64 361.78 514.64 331.63 393.55"/><polygon class="cls-98" points="331.63 393.55 361.78 514.64 422.08 454.09 331.63 393.55"/><polygon class="cls-99" points="241.19 393.55 301.48 423.82 241.19 484.36 241.19 393.55"/><polygon class="cls-100" points="301.48 423.82 301.48 454.09 241.19 484.36 301.48 423.82"/><polygon class="cls-100" points="301.48 454.09 180.89 514.64 271.33 514.64 301.48 454.09"/><path class="cls-19" d="M271.33,605.45"/><polygon class="cls-101" points="180.89 514.64 241.19 484.36 180.89 423.82 180.89 514.64"/><polygon class="cls-102" points="180.89 423.82 211.04 393.55 241.19 484.36 180.89 423.82"/><polygon class="cls-103" points="241.19 484.36 241.19 393.55 211.04 393.55 241.19 484.36"/><polygon class="cls-104" points="542.67 363.27 482.37 484.36 482.37 393.55 542.67 363.27"/><polygon class="cls-105" points="542.67 363.27 602.97 423.82 542.67 423.82 542.67 363.27"/><polygon class="cls-106" points="542.67 363.27 542.67 484.36 482.37 484.36 542.67 363.27"/><polygon class="cls-107" points="542.67 423.82 542.67 484.36 602.97 423.82 542.67 423.82"/><polygon class="cls-54" points="633.11 333 602.97 333 572.82 393.55 633.11 333"/><polygon class="cls-54" points="633.11 333 572.82 393.55 602.97 423.82 633.11 333"/><polygon class="cls-108" points="633.11 333 602.97 423.82 723.43 423.82 633.11 333"/><polygon class="cls-109" points="723.43 423.82 693.28 393.55 693.28 363.27 723.43 423.82"/><polygon class="cls-110" points="693.28 363.27 753.58 333 753.58 393.55 693.28 363.27"/><polygon class="cls-111" points="693.28 363.27 723.43 423.82 813.88 423.82 693.28 363.27"/><polygon class="cls-112" points="813.88 423.82 813.88 363.27 753.58 393.55 813.88 423.82"/><polygon class="cls-58" points="753.58 302.73 813.88 363.27 753.58 393.55 753.58 302.73"/><polygon class="cls-113" points="241.19 393.55 211.04 242.18 180.89 333 241.19 393.55"/><polygon class="cls-114" points="241.19 393.55 180.89 333 211.04 393.55 241.19 393.55"/><polygon class="cls-115" points="120.59 181.64 180.89 211.91 180.89 302.73 120.59 181.64"/><polygon class="cls-116" points="180.89 121.09 120.59 181.64 180.89 211.91 180.89 121.09"/><polygon class="cls-117" points="180.89 333 180.89 423.82 211.04 393.55 180.89 333"/><polygon class="cls-118" points="180.89 121.09 211.04 181.64 180.89 242.18 180.89 121.09"/><polygon class="cls-86" points="180.89 242.18 211.04 181.64 211.04 242.18 180.89 242.18"/><polygon class="cls-119" points="211.04 242.18 180.89 333 180.89 242.18 211.04 242.18"/><path class="cls-19" d="M90.44,302.73"/><path class="cls-19" d="M90.44,302.73"/><path class="cls-19" d="M90.44,333"/><polygon class="cls-120" points="120.59 181.64 120.59 302.73 150.74 242.18 120.59 181.64"/><polygon class="cls-121" points="150.74 242.18 90.44 363.27 180.89 302.73 150.74 242.18"/><polygon class="cls-122" points="422.08 454.09 361.78 514.64 422.08 544.91 422.08 454.09"/><polygon class="cls-123" points="422.08 454.09 512.52 544.91 422.08 575.18 422.08 454.09"/><polygon class="cls-124" points="482.37 514.64 542.67 575.18 602.97 514.64 482.37 514.64"/><polygon class="cls-39" points="482.37 454.09 482.37 514.64 422.08 454.09 482.37 454.09"/><polygon class="cls-125" points="482.37 484.36 482.37 514.64 602.97 514.64 482.37 484.36"/><polygon class="cls-126" points="482.37 484.36 542.67 484.36 602.97 514.64 482.37 484.36"/><polygon class="cls-127" points="542.67 484.36 602.97 514.64 602.97 423.82 542.67 484.36"/><path class="cls-19" d="M753.58,605.45"/><polygon class="cls-128" points="602.97 423.82 602.97 484.36 723.43 423.82 602.97 423.82"/><polygon class="cls-129" points="602.97 484.36 602.97 514.64 663.26 454.09 602.97 484.36"/><polygon class="cls-130" points="874.17 181.64 964.62 302.73 874.17 242.18 874.17 181.64"/><path class="cls-19" d="M934.47,393.55"/><polygon class="cls-131" points="874.17 242.18 874.17 272.45 934.47 333 874.17 242.18"/><polygon class="cls-132" points="874.17 242.18 934.47 333 964.62 302.73 874.17 242.18"/><polygon class="cls-133" points="904.32 302.73 813.88 333 753.58 302.73 904.32 302.73"/><polygon class="cls-134" points="753.58 302.73 813.88 363.27 874.17 363.27 753.58 302.73"/><polygon class="cls-135" points="813.88 333 904.32 302.73 934.47 393.55 813.88 333"/><polygon class="cls-136" points="904.32 302.73 934.47 393.55 994.77 393.55 904.32 302.73"/><polygon class="cls-137" points="934.47 333 964.62 302.73 994.77 393.55 934.47 333"/><polygon class="cls-138" points="180.89 302.73 180.89 423.82 120.59 393.55 180.89 302.73"/><polygon class="cls-139" points="120.59 181.64 60.3 272.45 120.59 302.73 120.59 181.64"/><polygon class="cls-140" points="60.3 272.45 90.44 363.27 120.59 302.73 60.3 272.45"/><polygon class="cls-141" points="180.89 302.73 90.44 363.27 120.59 393.55 180.89 302.73"/><path class="cls-19" d="M120.59,514.64"/><polygon class="cls-142" points="120.59 393.55 180.89 423.82 120.59 484.36 120.59 393.55"/><polygon class="cls-143" points="120.59 393.55 90.44 363.27 120.59 484.36 120.59 393.55"/><polygon class="cls-144" points="180.89 423.82 90.44 514.64 180.89 544.91 180.89 423.82"/><polygon class="cls-145" points="90.44 363.27 90.44 514.64 120.59 484.36 90.44 363.27"/><polygon class="cls-146" points="60.3 272.45 30.15 393.55 90.44 363.27 60.3 272.45"/><path class="cls-19" d="M30.15,454.09"/><polygon class="cls-147" points="90.44 363.27 30.15 393.55 90.44 514.64 90.44 363.27"/><polygon class="cls-148" points="180.89 514.64 180.89 605.45 241.19 514.64 180.89 514.64"/><polygon class="cls-149" points="90.44 514.64 180.89 544.91 180.89 605.45 90.44 514.64"/><path class="cls-19" d="M331.63,635.73"/><polygon class="cls-150" points="241.19 514.64 331.63 635.73 180.89 605.45 241.19 514.64"/><path class="cls-19" d="M331.63,575.18"/><polygon class="cls-151" points="361.78 514.64 331.63 635.73 241.19 514.64 361.78 514.64"/><polygon class="cls-152" points="361.78 514.64 331.63 635.73 391.93 575.18 361.78 514.64"/><polygon class="cls-153" points="361.78 514.64 422.08 544.91 422.08 635.73 361.78 514.64"/><polygon class="cls-38" points="391.93 575.18 301.48 666 391.93 696.27 391.93 575.18"/><polygon class="cls-154" points="391.93 575.18 391.93 696.27 452.22 696.27 391.93 575.18"/><polygon class="cls-155" points="452.22 696.27 542.67 605.45 422.08 635.73 452.22 696.27"/><polygon class="cls-156" points="422.08 635.73 422.08 575.18 542.67 605.45 422.08 635.73"/><polygon class="cls-157" points="512.52 544.91 422.08 575.18 542.67 605.45 512.52 544.91"/><polygon class="cls-158" points="512.52 544.91 572.82 666 542.67 575.18 512.52 544.91"/><polygon class="cls-159" points="331.63 635.73 301.48 666 180.89 605.45 331.63 635.73"/><polygon class="cls-160" points="813.88 363.27 813.88 423.82 874.17 363.27 813.88 363.27"/><polygon class="cls-161" points="813.88 423.82 874.17 454.09 874.17 363.27 813.88 423.82"/><polygon class="cls-162" points="874.17 454.09 783.73 514.64 813.88 423.82 874.17 454.09"/><polygon class="cls-102" points="783.73 514.64 723.43 423.82 813.88 423.82 783.73 514.64"/><polygon class="cls-163" points="723.43 423.82 663.26 454.09 723.43 484.36 723.43 423.82"/><polygon class="cls-164" points="723.43 423.82 723.43 544.91 783.73 514.64 723.43 423.82"/><polygon class="cls-135" points="874.17 363.27 874.17 484.36 934.47 393.55 874.17 363.27"/><polygon class="cls-165" points="994.77 393.55 874.17 484.36 934.47 393.55 994.77 393.55"/><path class="cls-19" d="M813.88,575.18"/><polygon class="cls-166" points="663.26 454.09 663.26 605.45 723.43 484.36 663.26 454.09"/><path class="cls-19" d="M723.43,635.73"/><polygon class="cls-167" points="723.43 484.36 723.43 605.45 693.28 544.91 723.43 484.36"/><polygon class="cls-168" points="663.26 454.09 572.82 544.91 663.26 544.91 663.26 454.09"/><polygon class="cls-169" points="542.67 575.18 572.82 666 572.82 544.91 542.67 575.18"/><polygon class="cls-148" points="572.82 544.91 663.26 544.91 572.82 666 572.82 544.91"/><polygon class="cls-170" points="663.26 544.91 572.82 666 633.11 666 663.26 544.91"/><polygon class="cls-171" points="663.26 544.91 633.11 666 663.26 696.27 663.26 544.91"/><polygon class="cls-102" points="693.28 544.91 663.26 605.45 663.26 696.27 693.28 544.91"/><path class="cls-19" d="M693.29,666"/><polygon class="cls-172" points="693.28 544.91 663.26 696.27 723.43 605.45 693.28 544.91"/><polygon class="cls-173" points="542.67 605.45 452.22 696.27 542.67 726.54 542.67 605.45"/><polygon class="cls-174" points="542.67 605.45 542.67 726.54 572.82 666 542.67 605.45"/><polygon class="cls-175" points="90.44 514.64 0 484.36 30.15 635.73 90.44 514.64"/><polygon class="cls-176" points="30.15 393.55 0 484.36 90.44 514.64 30.15 393.55"/><polygon class="cls-177" points="90.44 514.64 60.3 575.18 150.74 575.18 90.44 514.64"/><polygon class="cls-178" points="723.43 605.45 723.43 544.91 813.88 605.45 723.43 605.45"/><polygon class="cls-117" points="723.43 544.91 783.73 514.64 813.88 605.45 723.43 544.91"/><path class="cls-19" d="M783.73,514.64"/><polygon class="cls-179" points="783.73 514.64 874.17 454.09 813.88 605.45 783.73 514.64"/><polygon class="cls-180" points="874.17 454.09 874.17 605.45 813.88 605.45 874.17 454.09"/><polygon class="cls-181" points="874.17 605.45 994.77 393.55 874.17 484.36 874.17 605.45"/><polygon class="cls-182" points="723.43 605.45 813.88 635.73 874.17 605.45 723.43 605.45"/><path class="cls-19" d="M753.58,666"/><polygon class="cls-183" points="813.88 635.73 723.43 696.27 723.43 605.45 813.88 635.73"/><polygon class="cls-184" points="723.43 696.27 723.43 605.45 663.26 696.27 723.43 696.27"/><polygon class="cls-185" points="542.67 726.54 572.82 666 633.11 756.82 542.67 726.54"/><polygon class="cls-186" points="60.3 575.18 120.59 726.54 30.15 635.73 60.3 575.18"/><polygon class="cls-187" points="120.59 726.54 60.3 575.18 120.59 635.73 120.59 726.54"/><polygon class="cls-188" points="60.3 575.18 120.59 635.73 150.74 575.18 60.3 575.18"/><polygon class="cls-189" points="150.74 575.18 120.59 635.73 211.04 696.27 150.74 575.18"/><polygon class="cls-190" points="211.04 696.27 120.59 726.54 120.59 635.73 211.04 696.27"/><polygon class="cls-191" points="150.74 575.18 180.89 605.45 211.04 696.27 150.74 575.18"/><polygon class="cls-192" points="180.89 605.45 301.48 666 211.04 696.27 180.89 605.45"/><polygon class="cls-193" points="301.48 666 271.33 756.82 211.04 696.27 301.48 666"/><polygon class="cls-4" points="271.33 756.82 211.04 696.27 120.59 726.54 271.33 756.82"/><polygon class="cls-194" points="301.48 666 271.33 756.82 361.78 756.82 301.48 666"/><polygon class="cls-195" points="301.48 666 361.78 756.82 391.93 696.27 301.48 666"/><polygon class="cls-196" points="391.93 696.27 361.78 756.82 452.22 696.27 391.93 696.27"/><polygon class="cls-197" points="452.22 696.27 361.78 756.82 542.67 726.54 452.22 696.27"/><polygon class="cls-198" points="542.67 726.54 633.11 756.82 361.78 756.82 542.67 726.54"/><polygon class="cls-199" points="572.82 666 633.11 756.82 633.11 666 572.82 666"/><polygon class="cls-200" points="633.11 666 693.28 726.54 633.11 756.82 633.11 666"/><polygon class="cls-201" points="663.26 696.27 723.43 756.82 723.43 696.27 663.26 696.27"/><polygon class="cls-202" points="813.88 635.73 874.17 696.27 753.58 787.09 813.88 635.73"/><polygon class="cls-203" points="723.43 756.82 723.43 696.27 813.88 635.73 723.43 756.82"/><path class="cls-19" d="M723.43,756.82"/><polygon class="cls-203" points="693.28 726.54 753.58 787.09 633.11 756.82 693.28 726.54"/><polygon class="cls-204" points="633.11 756.82 753.58 787.09 663.26 817.36 633.11 756.82"/><polygon class="cls-205" points="994.77 605.45 874.17 696.27 934.47 605.45 994.77 605.45"/><polygon class="cls-206" points="723.43 756.82 753.58 787.09 813.88 635.73 723.43 756.82"/><polygon class="cls-207" points="813.88 635.73 874.17 605.45 874.17 696.27 813.88 635.73"/><polygon class="cls-11" points="874.17 605.45 874.17 696.27 934.47 605.45 874.17 605.45"/><polygon class="cls-208" points="904.32 544.91 1000 544.91 994.77 605.45 904.32 544.91"/><polygon class="cls-209" points="994.77 393.55 904.32 544.91 1000 544.91 994.77 393.55"/><polygon class="cls-210" points="904.32 544.91 874.17 605.45 994.77 605.45 904.32 544.91"/><polygon class="cls-211" points="633.11 756.82 361.78 756.82 482.37 787.09 633.11 756.82"/><polygon class="cls-212" points="482.37 787.09 361.78 756.82 391.93 847.64 482.37 787.09"/><polygon class="cls-213" points="391.93 847.64 512.52 847.64 482.37 787.09 391.93 847.64"/><path class="cls-19" d="M482.37,787.09"/><polygon class="cls-214" points="633.11 756.82 482.37 787.09 512.52 847.64 633.11 756.82"/><polygon class="cls-215" points="633.11 756.82 512.52 847.64 602.97 817.36 633.11 756.82"/><polygon class="cls-216" points="633.11 756.82 572.82 877.91 663.26 817.36 633.11 756.82"/><polygon class="cls-217" points="30.15 635.73 120.59 817.36 120.59 726.54 30.15 635.73"/><polygon class="cls-81" points="120.59 726.54 120.59 817.36 271.33 756.82 120.59 726.54"/><polygon class="cls-218" points="271.33 756.82 241.19 817.36 120.59 817.36 271.33 756.82"/><polygon class="cls-219" points="241.19 817.36 241.19 908.18 120.59 817.36 241.19 817.36"/><polygon class="cls-220" points="271.33 756.82 331.63 847.64 241.19 817.36 271.33 756.82"/><polygon class="cls-221" points="331.63 847.64 361.78 756.82 271.33 756.82 331.63 847.64"/><polygon class="cls-46" points="331.63 847.64 241.19 908.18 241.19 817.36 331.63 847.64"/><polygon class="cls-222" points="361.78 756.82 331.63 847.64 391.93 847.64 361.78 756.82"/><polygon class="cls-223" points="391.93 847.64 361.78 938.45 331.63 847.64 391.93 847.64"/><polygon class="cls-224" points="361.78 938.45 331.63 847.64 241.19 908.18 361.78 938.45"/><polygon class="cls-225" points="361.78 938.45 271.33 938.45 241.19 908.18 361.78 938.45"/><polygon class="cls-226" points="391.93 847.64 361.78 938.45 452.22 938.45 391.93 847.64"/><polygon class="cls-227" points="391.93 847.64 512.52 847.64 452.22 938.45 391.93 847.64"/><polygon class="cls-228" points="452.22 938.45 391.93 999 271.33 938.45 452.22 938.45"/><polygon class="cls-229" points="512.52 847.64 572.82 877.91 602.97 817.36 512.52 847.64"/><polygon class="cls-230" points="512.52 847.64 572.82 877.91 452.22 938.45 512.52 847.64"/><polygon class="cls-231" points="452.22 938.45 512.52 999 391.93 999 452.22 938.45"/><polygon class="cls-194" points="452.22 938.45 572.82 877.91 512.52 999 452.22 938.45"/><polygon class="cls-232" points="572.82 877.91 633.11 968.73 512.52 999 572.82 877.91"/><polygon class="cls-233" points="572.82 877.91 663.26 817.36 633.11 968.73 572.82 877.91"/><polygon class="cls-234" points="663.26 817.36 723.43 877.91 633.11 968.73 663.26 817.36"/><polygon class="cls-235" points="663.26 817.36 753.58 908.18 753.58 787.09 663.26 817.36"/><polygon class="cls-74" points="633.11 968.73 723.43 877.91 783.73 935.83 633.11 968.73"/><polygon class="cls-236" points="874.17 696.27 944.94 726.54 994.77 605.45 874.17 696.27"/><polygon class="cls-237" points="944.94 726.54 874.17 696.27 895.1 827.87 944.94 726.54"/><polygon class="cls-238" points="874.17 696.27 753.58 787.09 895.1 827.87 874.17 696.27"/><polygon class="cls-1" points="753.58 908.18 753.58 787.09 895.1 827.87 753.58 908.18"/><polygon class="cls-234" points="753.58 908.18 783.73 935.83 895.1 827.87 753.58 908.18"/><polygon class="cls-239" points="482.37 0 512.52 0 452.22 30.27 482.37 0"/><polygon class="cls-240" points="542.67 0 512.52 0 572.82 30.27 542.67 0"/><polygon class="cls-241" points="844.03 151.36 874.17 181.64 874.17 272.45 844.03 151.36"/></g></svg>