<svg id="Layer_1" data-name="Layer 1" xmlns="http://www.w3.org/2000/svg" viewBox="0 0 999.93 999.93"><defs><style>.cls-1{fill:#4051a3;}.cls-2{fill:#4c5ca9;}.cls-3{fill:#4556a6;}.cls-4{fill:#4354a4;}.cls-5{fill:#5168b0;}.cls-6{fill:#4e65af;}.cls-7{fill:#3b499f;}.cls-8{fill:#39459c;}.cls-9{fill:#2e3a8f;}.cls-10{fill:#333a97;}.cls-11{fill:#353f99;}.cls-12{fill:#4352a3;}.cls-13{fill:#4e62ad;}.cls-14{fill:#5672b7;}.cls-15{fill:#5267b0;}.cls-16{fill:#516bb3;}.cls-17{fill:#5777bb;}.cls-18{fill:#536fb5;}.cls-19{fill:#546bb3;}.cls-20{fill:#4b61ac;}.cls-21{fill:#5167b0;}.cls-22{fill:#485ba9;}.cls-23{fill:#5c7fc0;}.cls-24{fill:#5066af;}.cls-25{fill:#546cb3;}.cls-26{fill:#526db4;}.cls-27{fill:#5169b1;}.cls-28{fill:#5877ba;}.cls-29{fill:#516cb3;}.cls-30{fill:#5a7bbd;}.cls-31{fill:#4c5eaa;}.cls-32{fill:#5269b1;}.cls-33{fill:#2c2f72;}.cls-34{fill:#3e479d;}.cls-35{fill:#4555a5;}.cls-36{fill:#414da0;}.cls-37{fill:#4152a4;}.cls-38{fill:#4759a8;}.cls-39{fill:#4f67b0;}.cls-40{fill:#526ab2;}.cls-41{fill:#292965;}.cls-42{fill:#2d378b;}.cls-43{fill:#4c5fab;}.cls-44{fill:#495ba9;}.cls-45{fill:#495aa8;}.cls-46{fill:#495daa;}.cls-47{fill:#536cb3;}.cls-48{fill:#5674b8;}.cls-49{fill:#5270b6;}.cls-50{fill:none;stroke:#da4426;stroke-miterlimit:10;}.cls-51{fill:#3b4ca0;}.cls-52{fill:#2b3681;}.cls-53{fill:#282e6c;}.cls-54{fill:#1b1c4a;}.cls-55{fill:#202556;}.cls-56{fill:#262f66;}.cls-57{fill:#1a1d48;}.cls-58{fill:#485caa;}.cls-59{fill:#4658a7;}.cls-60{fill:#34419a;}.cls-61{fill:#35459c;}.cls-62{fill:#37479d;}.cls-63{fill:#2d3c8f;}.cls-64{fill:#394a9f;}.cls-65{fill:#4b63ae;}.cls-66{fill:#5673b8;}.cls-67{fill:#556fb6;}.cls-68{fill:#5775b9;}.cls-69{fill:#4156a6;}.cls-70{fill:#5576ba;}.cls-71{fill:#516ab2;}.cls-72{fill:#485eab;}.cls-73{fill:#4256a6;}.cls-74{fill:#1f2555;}.cls-75{fill:#1d244f;}.cls-76{fill:#212658;}.cls-77{fill:#262e67;}.cls-78{fill:#1c2047;}.cls-79{fill:#1b2049;}.cls-80{fill:#141a40;}.cls-81{fill:#212355;}.cls-82{fill:#191b42;}.cls-83{fill:#1b204a;}.cls-84{fill:#161c42;}.cls-85{fill:#181c48;}.cls-86{fill:#1c1e4d;}.cls-87{fill:#191e49;}.cls-88{fill:#171c43;}.cls-89{fill:#17193e;}.cls-90{fill:#4f65af;}.cls-91{fill:#526bb3;}.cls-92{fill:#506ab2;}.cls-93{fill:#5068b0;}.cls-94{fill:#516fb5;}.cls-95{fill:#3e4ea1;}.cls-96{fill:#4c65af;}.cls-97{fill:#31489b;}.cls-98{fill:#556eb4;}.cls-99{fill:#13183c;}.cls-100{fill:#262b63;}.cls-101{fill:#1c204d;}.cls-102{fill:#2b3986;}.cls-103{fill:#2b347b;}.cls-104{fill:#181f49;}.cls-105{fill:#5069b2;}.cls-106{fill:#4a5eab;}.cls-107{fill:#4f69b1;}.cls-108{fill:#4d62ad;}.cls-109{fill:#2a357b;}.cls-110{fill:#4d64ae;}.cls-111{fill:#475daa;}.cls-112{fill:#3f55a5;}.cls-113{fill:#2e3f85;}.cls-114{fill:#394ca0;}.cls-115{fill:#4155a5;}.cls-116{fill:#4e64ae;}.cls-117{fill:#4c61ad;}.cls-118{fill:#4a5fab;}.cls-119{fill:#3c4ea1;}.cls-120{fill:#2f4291;}.cls-121{fill:#252d64;}.cls-122{fill:#32479c;}.cls-123{fill:#161c43;}.cls-124{fill:#3f50a2;}.cls-125{fill:#404ca0;}.cls-126{fill:#4152a3;}.cls-127{fill:#3b4a9f;}.cls-128{fill:#36439b;}.cls-129{fill:#314198;}.cls-130{fill:#2a3b89;}.cls-131{fill:#3e51a3;}.cls-132{fill:#242f65;}.cls-133{fill:#29367c;}.cls-134{fill:#4354a5;}.cls-135{fill:#2c3582;}.cls-136{fill:#2f4097;}.cls-137{fill:#1a204b;}.cls-138{fill:#2c3b8c;}.cls-139{fill:#282e6a;}.cls-140{fill:#293374;}.cls-141{fill:#2f4096;}.cls-142{fill:#1c1e48;}.cls-143{fill:#181f45;}.cls-144{fill:#212457;}.cls-145{fill:#171d46;}.cls-146{fill:#1a1b45;}.cls-147{fill:#101b3b;}.cls-148{fill:#141b3d;}.cls-149{fill:#38449c;}.cls-150{fill:#3a4ba0;}.cls-151{fill:#2f4499;}.cls-152{fill:#161838;}.cls-153{fill:#1b1c42;}.cls-154{fill:#1c1f4d;}.cls-155{fill:#222f61;}.cls-156{fill:#293477;}</style></defs><title>neptune</title><path class="cls-1" d="M21.1,492.18c0,267.08,216.48,483.44,483.56,483.44S988.1,759.14,988.1,492.18,771.62,8.62,504.66,8.62,21.1,225.22,21.1,492.18Z" transform="translate(-0.07 -0.07)"/><polygon class="cls-2" points="529.42 137.24 470.51 39.16 588.22 78.44 529.42 137.24"/><polygon class="cls-3" points="470.51 39.16 294.11 137.24 431.35 156.87 470.51 39.16"/><polygon class="cls-4" points="470.51 39.16 529.42 137.24 431.35 156.87 470.51 39.16"/><polygon class="cls-5" points="529.42 137.24 450.98 254.83 431.35 156.87 529.42 137.24"/><polygon class="cls-6" points="294.11 137.24 450.98 254.83 431.35 156.87 294.11 137.24"/><polygon class="cls-7" points="588.22 78.44 627.38 176.4 529.42 137.24 588.22 78.44"/><polygon class="cls-8" points="627.38 176.4 666.66 78.44 588.22 78.44 627.38 176.4"/><polygon class="cls-9" points="470.51 39.16 666.66 78.44 588.22 78.44 470.51 39.16"/><polygon class="cls-10" points="470.51 39.16 568.58 0 568.58 58.8 470.51 39.16"/><polygon class="cls-11" points="568.58 0 666.66 78.44 568.58 58.8 568.58 0"/><polygon class="cls-12" points="529.42 137.24 529.42 215.67 627.38 176.4 529.42 137.24"/><polygon class="cls-13" points="529.42 137.24 450.98 254.83 529.42 215.67 529.42 137.24"/><polygon class="cls-14" points="450.98 254.83 548.94 294.11 529.42 215.67 450.98 254.83"/><polygon class="cls-15" points="548.94 294.11 627.38 176.4 529.42 215.67 548.94 294.11"/><polygon class="cls-16" points="450.98 254.83 490.14 352.91 548.94 294.11 450.98 254.83"/><polygon class="cls-17" points="450.98 254.83 431.35 372.55 490.14 352.91 450.98 254.83"/><polygon class="cls-18" points="548.94 294.11 490.14 352.91 568.58 372.55 548.94 294.11"/><polygon class="cls-19" points="568.58 372.55 431.35 372.55 490.14 352.91 568.58 372.55"/><polygon class="cls-20" points="431.35 372.55 568.58 372.55 490.14 450.98 431.35 372.55"/><polygon class="cls-21" points="431.35 372.55 490.14 450.98 431.35 450.98 431.35 372.55"/><polygon class="cls-22" points="568.58 372.55 666.66 431.35 490.14 450.98 568.58 372.55"/><polygon class="cls-23" points="431.35 450.98 548.94 490.14 490.14 450.98 431.35 450.98"/><polygon class="cls-24" points="548.94 490.14 666.66 431.35 490.14 450.98 548.94 490.14"/><polygon class="cls-25" points="450.98 254.83 372.55 196.03 431.35 372.55 450.98 254.83"/><polygon class="cls-26" points="372.55 196.03 333.27 294.11 411.71 313.63 372.55 196.03"/><polygon class="cls-27" points="333.27 294.11 274.47 215.67 372.55 196.03 333.27 294.11"/><polygon class="cls-28" points="333.27 294.11 333.27 392.07 411.71 313.63 333.27 294.11"/><polygon class="cls-6" points="333.27 392.07 431.35 450.98 431.35 372.55 333.27 392.07"/><polygon class="cls-29" points="274.47 215.67 333.27 392.07 333.27 294.11 274.47 215.67"/><polygon class="cls-30" points="333.27 392.07 431.35 372.55 411.71 313.63 333.27 392.07"/><polygon class="cls-31" points="294.11 137.24 274.47 215.67 372.55 196.03 294.11 137.24"/><polygon class="cls-32" points="548.94 294.11 568.58 372.55 627.38 176.4 548.94 294.11"/><polygon class="cls-33" points="568.58 0 372.55 0 470.51 39.16 568.58 0"/><polygon class="cls-34" points="372.55 0 432.85 60.19 470.51 39.16 372.55 0"/><polygon class="cls-35" points="372.55 0 294.11 137.24 432.85 60.19 372.55 0"/><polygon class="cls-36" points="294.11 137.24 294.11 39.16 372.55 0 294.11 137.24"/><polygon class="cls-37" points="294.11 137.24 196.03 97.96 294.11 39.16 294.11 137.24"/><polygon class="cls-38" points="196.03 97.96 274.47 215.67 294.11 137.24 196.03 97.96"/><polygon class="cls-39" points="568.58 372.55 627.38 176.4 627.38 313.63 568.58 372.55"/><polygon class="cls-40" points="666.66 431.35 627.38 313.63 568.58 372.55 666.66 431.35"/><polygon class="cls-41" points="568.58 0 745.09 58.8 666.66 78.44 568.58 0"/><polygon class="cls-42" points="745.09 58.8 627.38 176.4 666.66 78.44 745.09 58.8"/><polygon class="cls-43" points="627.38 176.4 627.38 313.63 666.66 431.35 627.38 176.4"/><polygon class="cls-44" points="666.66 431.35 645.52 294.11 725.46 294.11 666.66 431.35"/><polygon class="cls-45" points="645.52 294.11 627.38 176.4 725.46 294.11 645.52 294.11"/><polygon class="cls-46" points="274.47 215.67 215.67 274.47 196.03 97.96 274.47 215.67"/><polygon class="cls-47" points="215.67 274.47 274.47 215.67 313.75 333.27 215.67 274.47"/><polygon class="cls-48" points="215.67 274.47 333.27 392.07 313.75 333.27 215.67 274.47"/><polygon class="cls-49" points="215.67 274.47 254.83 352.91 294.11 352.91 215.67 274.47"/><polygon class="cls-25" points="254.83 352.91 333.27 392.07 294.11 352.91 254.83 352.91"/><path class="cls-50" d="M333.34,431.42" transform="translate(-0.07 -0.07)"/><polygon class="cls-51" points="627.38 176.4 725.46 294.11 666.66 137.24 627.38 176.4"/><polygon class="cls-52" points="745.09 58.8 666.66 137.24 725.46 294.11 745.09 58.8"/><polygon class="cls-53" points="745.09 58.8 764.62 176.4 725.46 294.11 745.09 58.8"/><path class="cls-50" d="M784.33,254.91" transform="translate(-0.07 -0.07)"/><polygon class="cls-54" points="745.09 58.8 803.89 97.96 764.62 176.4 745.09 58.8"/><polygon class="cls-55" points="803.89 97.96 843.05 196.03 764.62 176.4 803.89 97.96"/><polygon class="cls-56" points="843.05 196.03 725.46 294.11 764.62 176.4 843.05 196.03"/><polygon class="cls-57" points="803.89 97.96 882.33 176.4 843.05 196.03 803.89 97.96"/><polygon class="cls-58" points="666.66 431.35 764.62 450.98 548.94 490.14 666.66 431.35"/><polygon class="cls-59" points="725.46 294.11 764.62 450.98 666.66 431.35 725.46 294.11"/><polygon class="cls-60" points="725.46 294.11 764.62 450.98 784.25 372.55 725.46 294.11"/><polygon class="cls-61" points="784.25 372.55 823.53 509.78 764.62 450.98 784.25 372.55"/><polygon class="cls-62" points="823.53 509.78 548.94 490.14 764.62 450.98 823.53 509.78"/><polygon class="cls-63" points="725.46 294.11 784.25 372.55 843.05 196.03 725.46 294.11"/><polygon class="cls-64" points="196.03 97.96 137.24 156.87 215.67 274.47 196.03 97.96"/><polygon class="cls-26" points="215.67 274.47 215.67 372.55 254.83 352.91 215.67 274.47"/><polygon class="cls-27" points="215.67 372.55 333.27 392.07 254.83 352.91 215.67 372.55"/><polygon class="cls-65" points="137.24 156.87 215.67 372.55 215.67 274.47 137.24 156.87"/><polygon class="cls-66" points="215.67 372.55 274.47 431.35 333.27 392.07 215.67 372.55"/><polygon class="cls-18" points="215.67 372.55 196.03 470.51 274.47 431.35 215.67 372.55"/><polygon class="cls-23" points="274.47 431.35 352.91 509.78 333.27 392.07 274.47 431.35"/><polygon class="cls-67" points="196.03 470.51 352.91 509.78 274.47 431.35 196.03 470.51"/><polygon class="cls-68" points="352.91 509.78 431.35 450.98 333.27 392.07 352.91 509.78"/><polygon class="cls-69" points="137.24 156.87 98.08 215.67 196.03 313.63 137.24 156.87"/><polygon class="cls-70" points="196.03 470.51 215.67 372.55 196.03 313.63 196.03 470.51"/><polygon class="cls-71" points="196.03 313.63 156.87 392.07 196.03 470.51 196.03 313.63"/><polygon class="cls-72" points="98.08 215.67 156.87 392.07 196.03 313.63 98.08 215.67"/><polygon class="cls-73" points="156.87 392.07 117.6 392.07 98.08 215.67 156.87 392.07"/><polygon class="cls-26" points="117.6 392.07 196.03 470.51 156.87 392.07 117.6 392.07"/><polygon class="cls-14" points="352.91 509.78 548.94 490.14 431.35 450.98 352.91 509.78"/><polygon class="cls-74" points="882.33 176.4 941.13 254.83 843.05 196.03 882.33 176.4"/><polygon class="cls-75" points="843.05 196.03 941.13 313.63 941.13 254.83 843.05 196.03"/><polygon class="cls-76" points="941.13 313.63 784.25 372.55 843.05 196.03 941.13 313.63"/><polygon class="cls-77" points="941.13 313.63 784.25 372.55 823.53 509.78 941.13 313.63"/><polygon class="cls-78" points="941.13 313.63 921.49 411.71 823.53 509.78 941.13 313.63"/><polygon class="cls-79" points="941.13 313.63 921.49 411.71 999.93 490.14 941.13 313.63"/><polygon class="cls-80" points="941.13 254.83 999.93 490.14 941.13 313.63 941.13 254.83"/><polygon class="cls-81" points="823.53 509.78 941.13 490.14 921.49 411.71 823.53 509.78"/><polygon class="cls-82" points="921.49 411.71 941.13 490.14 999.93 490.14 921.49 411.71"/><polygon class="cls-83" points="999.93 490.14 980.29 588.22 941.13 490.14 999.93 490.14"/><polygon class="cls-84" points="823.53 509.78 921.49 568.58 941.13 490.14 823.53 509.78"/><polygon class="cls-85" points="921.49 568.58 980.29 588.22 941.13 490.14 921.49 568.58"/><polygon class="cls-86" points="921.49 568.58 901.97 666.66 980.29 588.22 921.49 568.58"/><polygon class="cls-87" points="901.97 666.66 921.49 568.58 823.53 509.78 901.97 666.66"/><polygon class="cls-88" points="980.29 588.22 901.97 666.66 941.13 725.46 980.29 588.22"/><polygon class="cls-89" points="941.13 725.46 901.97 784.25 901.97 666.66 941.13 725.46"/><polygon class="cls-90" points="352.91 509.78 333.27 588.22 254.83 588.22 352.91 509.78"/><polygon class="cls-91" points="196.03 470.51 254.83 588.22 352.91 509.78 196.03 470.51"/><polygon class="cls-92" points="352.91 509.78 450.98 588.22 333.27 588.22 352.91 509.78"/><polygon class="cls-93" points="450.98 588.22 372.55 627.38 333.27 588.22 450.98 588.22"/><polygon class="cls-94" points="372.55 627.38 333.27 588.22 254.83 588.22 372.55 627.38"/><polygon class="cls-95" points="98.08 215.67 39.16 313.63 117.6 392.07 98.08 215.67"/><polygon class="cls-64" points="117.6 392.07 19.64 392.07 39.16 313.63 117.6 392.07"/><polygon class="cls-96" points="19.64 392.07 196.03 470.51 117.6 392.07 19.64 392.07"/><polygon class="cls-97" points="19.64 392.07 0 450.98 98.08 490.14 19.64 392.07"/><polygon class="cls-72" points="19.64 392.07 98.08 490.14 196.03 470.51 19.64 392.07"/><polygon class="cls-71" points="98.08 490.14 254.83 588.22 196.03 470.51 98.08 490.14"/><polygon class="cls-98" points="450.98 588.22 352.91 509.78 548.94 490.14 450.98 588.22"/><path class="cls-50" d="M529.49,588.29" transform="translate(-0.07 -0.07)"/><polygon class="cls-99" points="901.97 666.66 784.25 784.25 901.97 784.25 901.97 666.66"/><polygon class="cls-100" points="823.53 509.78 803.89 647.02 901.97 666.66 823.53 509.78"/><polygon class="cls-101" points="803.89 647.02 784.25 784.25 901.97 666.66 803.89 647.02"/><polygon class="cls-102" points="803.89 647.02 725.46 588.22 823.53 509.78 803.89 647.02"/><polygon class="cls-103" points="725.46 588.22 803.89 647.02 784.25 784.25 725.46 588.22"/><polygon class="cls-84" points="784.25 784.25 862.69 843.05 901.97 784.25 784.25 784.25"/><polygon class="cls-104" points="862.69 843.05 803.89 901.85 784.25 784.25 862.69 843.05"/><polygon class="cls-1" points="725.46 588.22 823.53 509.78 548.94 490.14 725.46 588.22"/><polygon class="cls-105" points="548.94 490.14 568.58 607.74 687.68 567.2 548.94 490.14"/><polygon class="cls-90" points="568.58 607.74 509.78 627.38 548.94 490.14 568.58 607.74"/><polygon class="cls-22" points="568.58 607.74 647.02 647.02 687.68 567.2 568.58 607.74"/><polygon class="cls-106" points="568.58 607.74 647.02 647.02 509.78 627.38 568.58 607.74"/><polygon class="cls-107" points="548.94 490.14 509.78 627.38 450.98 588.22 548.94 490.14"/><polygon class="cls-108" points="372.55 627.38 509.78 627.38 450.98 588.22 372.55 627.38"/><polygon class="cls-1" points="647.02 647.02 725.46 588.22 687.68 567.2 647.02 647.02"/><polygon class="cls-109" points="647.02 647.02 784.25 784.25 725.46 588.22 647.02 647.02"/><polygon class="cls-110" points="98.08 490.14 117.6 607.74 254.83 588.22 98.08 490.14"/><polygon class="cls-111" points="117.6 607.74 58.8 529.31 98.08 490.14 117.6 607.74"/><polygon class="cls-112" points="0 450.98 58.8 529.31 98.08 490.14 0 450.98"/><polygon class="cls-113" points="0 450.98 0 548.94 58.8 529.31 0 450.98"/><polygon class="cls-114" points="0 548.94 117.6 607.74 58.8 529.31 0 548.94"/><polygon class="cls-7" points="0 548.94 19.64 666.66 117.6 607.74 0 548.94"/><polygon class="cls-115" points="19.64 666.66 117.6 666.66 117.6 607.74 19.64 666.66"/><polygon class="cls-96" points="117.6 666.66 254.83 588.22 117.6 607.74 117.6 666.66"/><polygon class="cls-116" points="254.83 588.22 294.11 666.66 372.55 627.38 254.83 588.22"/><polygon class="cls-117" points="254.83 588.22 294.11 666.66 215.67 705.82 254.83 588.22"/><polygon class="cls-118" points="215.67 705.82 117.6 666.66 254.83 588.22 215.67 705.82"/><polygon class="cls-119" points="117.6 666.66 117.6 784.25 215.67 705.82 117.6 666.66"/><polygon class="cls-120" points="19.64 666.66 117.6 784.25 117.6 666.66 19.64 666.66"/><polygon class="cls-121" points="19.64 666.66 137.24 843.05 117.6 784.25 19.64 666.66"/><polygon class="cls-122" points="215.67 705.82 137.24 843.05 117.6 784.25 215.67 705.82"/><polygon class="cls-104" points="803.89 901.85 745.09 744.98 784.25 784.25 803.89 901.85"/><polygon class="cls-123" points="745.09 744.98 725.46 941.13 803.89 901.85 745.09 744.98"/><polygon class="cls-124" points="215.67 705.82 294.11 666.66 313.75 764.62 215.67 705.82"/><polygon class="cls-125" points="313.75 764.62 372.55 627.38 294.11 666.66 313.75 764.62"/><polygon class="cls-126" points="313.75 764.62 392.19 725.46 372.55 627.38 313.75 764.62"/><polygon class="cls-95" points="392.19 725.46 509.78 627.38 372.55 627.38 392.19 725.46"/><polygon class="cls-51" points="392.19 725.46 450.98 803.89 509.78 627.38 392.19 725.46"/><polygon class="cls-127" points="313.75 764.62 450.98 803.89 392.19 725.46 313.75 764.62"/><polygon class="cls-128" points="215.67 705.82 294.11 803.89 313.75 764.62 215.67 705.82"/><polygon class="cls-129" points="215.67 705.82 137.24 843.05 294.11 803.89 215.67 705.82"/><polygon class="cls-95" points="294.11 803.89 450.98 803.89 313.75 764.62 294.11 803.89"/><polygon class="cls-130" points="294.11 803.89 294.11 882.33 137.24 843.05 294.11 803.89"/><polygon class="cls-131" points="294.11 882.33 450.98 803.89 294.11 803.89 294.11 882.33"/><polygon class="cls-132" points="137.24 843.05 274.47 941.13 294.11 882.33 137.24 843.05"/><polygon class="cls-133" points="274.47 941.13 450.98 803.89 294.11 882.33 274.47 941.13"/><polygon class="cls-134" points="509.78 627.38 470.51 744.98 647.02 647.02 509.78 627.38"/><polygon class="cls-135" points="647.02 647.02 647.02 744.98 745.09 744.98 647.02 647.02"/><polygon class="cls-136" points="647.02 647.02 470.51 744.98 647.02 744.98 647.02 647.02"/><polygon class="cls-137" points="647.02 744.98 725.46 941.13 745.09 744.98 647.02 744.98"/><polygon class="cls-138" points="470.51 744.98 588.22 803.89 647.02 744.98 470.51 744.98"/><polygon class="cls-139" points="588.22 803.89 686.18 843.05 647.02 744.98 588.22 803.89"/><polygon class="cls-140" points="686.18 843.05 529.42 862.69 588.22 803.89 686.18 843.05"/><polygon class="cls-141" points="529.42 862.69 470.51 744.98 588.22 803.89 529.42 862.69"/><polygon class="cls-142" points="725.46 941.13 627.38 980.29 647.02 921.49 725.46 941.13"/><polygon class="cls-143" points="725.46 941.13 686.18 843.05 647.02 921.49 725.46 941.13"/><polygon class="cls-144" points="529.42 862.69 647.02 921.49 686.18 843.05 529.42 862.69"/><polygon class="cls-145" points="529.42 862.69 647.02 921.49 627.38 980.29 529.42 862.69"/><polygon class="cls-146" points="627.38 980.29 529.42 999.93 548.94 941.13 627.38 980.29"/><polygon class="cls-147" points="627.38 980.29 529.42 862.69 548.94 941.13 627.38 980.29"/><polygon class="cls-148" points="529.42 999.93 529.42 862.69 548.94 941.13 529.42 999.93"/><polygon class="cls-149" points="450.98 803.89 470.51 744.98 529.42 862.69 450.98 803.89"/><polygon class="cls-150" points="450.98 803.89 372.55 862.69 529.42 862.69 450.98 803.89"/><polygon class="cls-151" points="529.42 862.69 274.47 941.13 372.55 862.69 529.42 862.69"/><polygon class="cls-152" points="274.47 941.13 392.19 980.29 392.19 941.13 274.47 941.13"/><polygon class="cls-153" points="392.19 980.29 529.42 999.93 392.19 941.13 392.19 980.29"/><polygon class="cls-154" points="392.19 941.13 529.42 901.85 529.42 999.93 392.19 941.13"/><polygon class="cls-155" points="274.47 941.13 392.19 941.13 529.42 862.69 274.47 941.13"/><polygon class="cls-156" points="529.42 862.69 529.42 901.85 392.19 941.13 529.42 862.69"/><polygon class="cls-80" points="941.13 254.83 993.34 411.71 999.93 490.14 941.13 254.83"/></svg>