<svg id="Layer_1" data-name="Layer 1" xmlns="http://www.w3.org/2000/svg" xmlns:xlink="http://www.w3.org/1999/xlink" viewBox="0 0 1000.51 1000.25"><defs><style>.cls-1{fill:#3d5477;}.cls-2{fill:#364a72;}.cls-3{fill:#384e69;}.cls-4{fill:#466397;}.cls-5{fill:#496583;}.cls-6{fill:#496996;}.cls-7{fill:#243049;}.cls-8{fill:#121625;}.cls-9{fill:#45659b;}.cls-10{fill:#4a6789;}.cls-11{fill:#131624;}.cls-12{fill:#1a253e;}.cls-13{fill:#111831;}.cls-14{fill:#3d588c;}.cls-15{fill:#5378b5;}.cls-16{fill:#4a6c94;}.cls-17{fill:#496785;}.cls-18{fill:#5477aa;}.cls-19{fill:#496484;}.cls-20{fill:url(#linear-gradient);}.cls-21{fill:#4e71af;}.cls-22{fill:#476280;}.cls-23{fill:#43629d;}.cls-24{fill:#2c406f;}.cls-25{fill:#12141e;}.cls-26{fill:#131524;}.cls-27{fill:#1b294f;}.cls-28{fill:#131933;}.cls-29{fill:#141524;}.cls-30{fill:#34497e;}.cls-31{fill:#141629;}.cls-32{fill:#233658;}.cls-33{fill:#3e567b;}.cls-34{fill:#5072af;}.cls-35{fill:#2c3d59;}.cls-36{fill:#1f2940;}.cls-37{fill:#2f4267;}.cls-38{fill:#162140;}.cls-39{fill:#3c5b97;}.cls-40{fill:#496cab;}.cls-41{fill:#5177b7;}.cls-42{fill:#5173a4;}.cls-43{fill:#557ebf;}.cls-44{fill:#33476f;}.cls-45{fill:#4465a4;}.cls-46{fill:#4465a3;}.cls-47{fill:#4a6faf;}.cls-48{fill:#5580c1;}.cls-49{fill:#121920;}.cls-50{fill:#12141c;}</style><linearGradient id="linear-gradient" x1="396.47" y1="869.96" x2="298.37" y2="968.07" gradientTransform="matrix(1, 0, 0, -1, 0, 1002)" gradientUnits="userSpaceOnUse"><stop offset="0" stop-color="#2f3e53"/><stop offset="0.23" stop-color="#303f56"/><stop offset="0.47" stop-color="#35465f"/><stop offset="0.72" stop-color="#3b4e6e"/><stop offset="0.97" stop-color="#405a84"/><stop offset="1" stop-color="#405c87"/></linearGradient></defs><title>pluto</title><polygon class="cls-1" points="193.36 900.43 372.61 727.72 434.8 999.99 193.36 900.43"/><polygon class="cls-2" points="527.04 875.35 372.61 728.24 435.58 999.99 527.04 875.35"/><polygon class="cls-3" points="193.36 900.43 434.8 999.99 307.29 966.02 193.36 900.43"/><polygon class="cls-3" points="100.08 807.15 372.61 727.72 193.36 900.43 100.08 807.15"/><polygon class="cls-4" points="300.75 560.48 372.61 727.72 561.27 612.22 300.75 560.48"/><polygon class="cls-5" points="100.08 807.15 180.82 612.22 34.49 693.22 100.08 807.15"/><polygon class="cls-6" points="372.61 727.72 180.82 612.22 100.08 807.15 372.61 727.72"/><polygon class="cls-7" points="525.21 875.35 591.06 760.64 693.75 966.02 525.21 875.35"/><polygon class="cls-4" points="372.61 727.72 591.06 760.64 525.21 875.35 372.61 727.72"/><polygon class="cls-8" points="807.93 900.43 591.06 760.64 693.75 966.02 807.93 900.43"/><polygon class="cls-9" points="561.27 612.22 591.06 760.64 372.61 727.72 561.27 612.22"/><polygon class="cls-10" points="0.78 565.71 180.82 612.22 34.49 693.22 0.78 565.71"/><polygon class="cls-11" points="807.93 900.43 737.91 618.23 966.8 693.22 807.93 900.43"/><polygon class="cls-12" points="591.06 760.64 737.91 618.23 807.93 900.43 591.06 760.64"/><polygon class="cls-13" points="1000.51 565.71 737.91 618.23 966.8 693.22 1000.51 565.71"/><polygon class="cls-14" points="561.27 612.22 737.91 618.23 591.06 760.64 561.27 612.22"/><polygon class="cls-15" points="300.75 560.48 180.82 612.22 372.61 727.72 300.75 560.48"/><polygon class="cls-16" points="0 565.71 223.41 449.69 0 434.02 0 565.71"/><polygon class="cls-17" points="180.82 612.22 224.19 449.69 0.78 565.71 180.82 612.22"/><polygon class="cls-18" points="300.75 560.48 224.19 449.69 180.82 612.22 300.75 560.48"/><polygon class="cls-19" points="34.49 306.76 224.19 449.69 0.78 434.02 34.49 306.76"/><polygon class="cls-16" points="100.08 192.58 224.19 449.69 34.49 306.76 100.08 192.58"/><polygon class="cls-20" points="193.36 99.29 372.61 224.46 434.8 0 193.36 99.29"/><polygon class="cls-21" points="100.08 192.58 276.71 321.13 193.36 99.29 100.08 192.58"/><polygon class="cls-22" points="224.19 449.69 276.71 321.13 100.08 192.58 224.19 449.69"/><polygon class="cls-23" points="561.27 612.22 693.75 396.13 737.91 618.23 561.27 612.22"/><polygon class="cls-24" points="1000.51 565.71 693.75 396.13 737.91 618.23 1000.51 565.71"/><polygon class="cls-25" points="966.8 306.76 807.93 346.74 1000.51 434.02 966.8 306.76"/><polygon class="cls-26" points="998.16 565.71 866.73 426.18 998.16 434.02 998.16 565.71"/><polygon class="cls-27" points="693.75 396.13 869.34 426.18 1000.51 565.71 693.75 396.13"/><polygon class="cls-28" points="807.93 346.74 869.34 426.18 1000.51 434.02 807.93 346.74"/><polygon class="cls-29" points="901.22 192.58 807.93 346.74 966.8 306.76 901.22 192.58"/><polygon class="cls-30" points="693.75 396.13 807.93 346.74 869.34 426.18 693.75 396.13"/><polygon class="cls-31" points="901.22 192.58 671.8 243.53 807.93 99.56 901.22 192.58"/><polygon class="cls-32" points="693.75 33.71 671.8 243.53 807.93 99.56 693.75 33.71"/><polygon class="cls-33" points="193.36 99.29 307.55 33.71 434.8 0 193.36 99.29"/><polygon class="cls-34" points="372.61 224.46 276.71 321.13 193.36 99.29 372.61 224.46"/><polygon class="cls-35" points="566.49 1.04 372.61 224.46 434.8 0 566.49 1.04"/><polygon class="cls-36" points="693.75 33.71 591.06 138.75 566.49 0 693.75 33.71"/><polygon class="cls-37" points="671.8 243.53 591.06 138.75 693.75 33.71 671.8 243.53"/><polygon class="cls-38" points="671.8 243.53 807.93 346.74 901.22 192.58 671.8 243.53"/><polygon class="cls-39" points="693.75 396.13 671.8 243.53 807.93 346.74 693.75 396.13"/><polygon class="cls-40" points="300.75 560.48 463.54 396.13 561.27 612.22 300.75 560.48"/><polygon class="cls-41" points="693.49 397.17 463.54 396.13 561.27 613 693.49 397.17"/><polygon class="cls-42" points="276.71 321.13 300.75 560.48 224.19 449.69 276.71 321.13"/><polygon class="cls-43" points="463.54 396.13 276.71 321.13 300.75 560.48 463.54 396.13"/><polygon class="cls-43" points="372.61 224.46 463.54 396.13 276.71 321.13 372.61 224.46"/><polygon class="cls-44" points="566.49 0 591.06 138.75 372.61 224.46 566.49 0"/><polygon class="cls-45" points="671.8 243.53 534.09 299.71 591.06 138.75 671.8 243.53"/><polygon class="cls-46" points="693.49 396.39 534.09 299.71 671.8 243.53 693.49 396.39"/><polygon class="cls-43" points="463.54 396.13 534.09 299.71 693.49 396.39 463.54 396.13"/><polygon class="cls-47" points="372.61 224.46 534.09 299.71 591.06 138.75 372.61 224.46"/><polygon class="cls-48" points="463.54 396.13 534.09 299.71 372.61 224.46 463.54 396.13"/><polygon class="cls-49" points="434.8 999.99 525.21 875.35 693.75 966.02 434.8 999.99"/><polygon class="cls-49" points="566.49 1000.25 693.75 966.54 434.8 1000.25 566.49 1000.25"/><polygon class="cls-50" points="966.8 693.22 807.93 900.43 900.96 807.41 966.8 693.22"/></svg>