<svg id="Layer_1" data-name="Layer 1" xmlns="http://www.w3.org/2000/svg" xmlns:xlink="http://www.w3.org/1999/xlink" viewBox="0 0 1004.63 753.47"><defs><style>.cls-1,.cls-123,.cls-4{fill:none;}.cls-2{fill:#95724f;}.cls-3{fill:#93714f;}.cls-4{stroke:#fff;}.cls-123,.cls-4{stroke-miterlimit:10;}.cls-5{fill:#a98154;}.cls-6{fill:#a47d53;}.cls-7{fill:#9d7b52;}.cls-8{fill:#b08653;}.cls-9{fill:#a88253;}.cls-10{fill:#d3a462;}.cls-11{fill:#866950;}.cls-12{fill:#765d4d;}.cls-13{fill:#ac8457;}.cls-14{fill:#917155;}.cls-15{fill:#b28855;}.cls-16{fill:#e0ad5b;}.cls-17{fill:#deab59;}.cls-18{fill:#a57d54;}.cls-19{fill:#b48b56;}.cls-20{fill:#e2af59;}.cls-21{fill:#b1895c;}.cls-22{fill:#a78358;}.cls-23{fill:#d6a55b;}.cls-24{fill:#a98257;}.cls-25{fill:#9f7c59;}.cls-26{fill:#c69753;}.cls-27{fill:#a27e5c;}.cls-28{fill:#c49755;}.cls-29{fill:#cd9c52;}.cls-30{fill:#d8a554;}.cls-31{fill:#d6a453;}.cls-32{fill:#d0a252;}.cls-33{fill:#daa761;}.cls-34{fill:#d8a651;}.cls-35{fill:#dda954;}.cls-36{fill:#d7a44d;}.cls-37{fill:#deac53;}.cls-38{fill:#b68d53;}.cls-39{fill:#d7a64f;}.cls-40{fill:#cf9d4c;}.cls-41{fill:#e1aa56;}.cls-42{fill:#d8a350;}.cls-43{fill:#e0ae54;}.cls-44{fill:#d4a255;}.cls-45{fill:#dcaa54;}.cls-46{fill:#c39354;}.cls-47{fill:#bd9155;}.cls-48{fill:#d5a355;}.cls-49{fill:#c2914c;}.cls-50{fill:#be9352;}.cls-51{fill:#eab455;}.cls-52{fill:#e8b354;}.cls-53{fill:#d3a15b;}.cls-54{fill:#e7b154;}.cls-55{fill:#c89754;}.cls-56{fill:#ae8459;}.cls-57{fill:#a97f54;}.cls-58{fill:#b58858;}.cls-59{fill:#b88950;}.cls-60{fill:#e6b156;}.cls-61{fill:#846446;}.cls-62{fill:#ad7f4b;}.cls-63{fill:#cb984f;}.cls-64{fill:#cf9d4d;}.cls-65{fill:#efb552;}.cls-66{fill:#e9ab4a;}.cls-67{fill:#cd9e4f;}.cls-68{fill:#deaa51;}.cls-69{fill:#f1bc53;}.cls-70{fill:#c49854;}.cls-71{fill:#be8f4f;}.cls-72{fill:#a27b52;}.cls-73{fill:#a78455;}.cls-74{fill:#cb9c50;}.cls-75{fill:#ce9f68;}.cls-76{fill:#b99059;}.cls-77{fill:#f6bc56;}.cls-78{fill:#9c774b;}.cls-79{fill:#b78949;}.cls-80{fill:#bc8e4a;}.cls-81{fill:#bf8e47;}.cls-82{fill:#daa24e;}.cls-83{fill:#ecb350;}.cls-84{fill:#f1b952;}.cls-85{fill:#f8bc52;}.cls-86{fill:#f0b653;}.cls-87{fill:#f6ba51;}.cls-88{fill:#ca9a5f;}.cls-89{fill:#c19762;}.cls-90{fill:#c2945e;}.cls-91{fill:#d2a260;}.cls-92{fill:#d3a263;}.cls-93{fill:#d09b5d;}.cls-94{fill:#dca75f;}.cls-95{fill:#b88947;}.cls-96{fill:#c1914d;}.cls-97{fill:#a47a4b;}.cls-98{fill:#cc9a4a;}.cls-99{fill:#f5bb52;}.cls-100{fill:#d8a661;}.cls-101{fill:#d5a05e;}.cls-102{fill:#dda662;}.cls-103{fill:#e5ae58;}.cls-104{fill:#e5af4a;}.cls-105{fill:#f6bf59;}.cls-106{fill:#ce9b53;}.cls-107{fill:#d6a260;}.cls-108{fill:#daa564;}.cls-109{fill:#dba45e;}.cls-110{fill:#d0a061;}.cls-111{fill:#d09e5f;}.cls-112{fill:#d4a161;}.cls-113{fill:#b99063;}.cls-114{fill:#d39d4a;}.cls-115{fill:#ce9b47;}.cls-116{fill:#c5965f;}.cls-117{fill:#c2935a;}.cls-118{fill:#c7974a;}.cls-119{fill:#c59147;}.cls-120{fill:#ba8f51;}.cls-121{clip-path:url(#clip-path);}.cls-122{fill:#674d3f;}.cls-123{stroke:#2bace2;}.cls-124{fill:#735d47;}.cls-125{fill:#725b49;}.cls-126{fill:#82634d;}.cls-127{fill:#906d54;}.cls-128{fill:#8b6e60;}.cls-129{fill:#937558;}.cls-130{fill:#8d7361;}.cls-131{fill:#8d7058;}.cls-132{fill:#6d533c;}.cls-133{fill:#7d614b;}.cls-134{fill:#806249;}.cls-135{fill:#644d3c;}.cls-136{fill:#83664e;}.cls-137{fill:#866951;}.cls-138{fill:#7b6048;}.cls-139{fill:#8a705e;}.cls-140{fill:#785c47;}.cls-141{fill:#82634e;}.cls-142{fill:#9a7761;}.cls-143{fill:#886850;}.cls-144{fill:#9b7666;}.cls-145{fill:#95735b;}.cls-146{fill:#8b6a5e;}.cls-147{fill:#8b6d67;}.cls-148{fill:#977462;}.cls-149{fill:#7a5e4c;}.cls-150{fill:#765b4b;}.cls-151{fill:#775c49;}.cls-152{fill:#84685c;}.cls-153{fill:#6d5747;}.cls-154{fill:#584235;}.cls-155{fill:#584537;}.cls-156{fill:#634c3f;}.cls-157{fill:#644c3c;}.cls-158{fill:#7a5a47;}.cls-159{fill:#756154;}.cls-160{fill:#765a47;}.cls-161{fill:#4a372e;}.cls-162{fill:#91715e;}.cls-163{fill:#997763;}.cls-164{fill:#8a6c54;}.cls-165{fill:#7d695c;}.cls-166{fill:#96735d;}.cls-167{fill:#7e614f;}.cls-168{fill:#5d4638;}.cls-169{fill:#997760;}.cls-170{fill:#927563;}.cls-171{fill:#6f5943;}.cls-172{fill:#846851;}.cls-173{fill:#947562;}.cls-174{fill:#856956;}.cls-175{fill:#98765e;}.cls-176{fill:#926e55;}.cls-177{fill:#9b755c;}.cls-178{fill:#97785d;}.cls-179{fill:#9d7a60;}.cls-180{fill:#a47f5c;}.cls-181{fill:#a47f62;}.cls-182{fill:#a67f5e;}.cls-183{fill:#917152;}.cls-184{fill:#b08966;}.cls-185{fill:#a47d5a;}.cls-186{fill:#947356;}.cls-187{fill:#a57e5f;}.cls-188{fill:#9f7354;}.cls-189{fill:#a57e5a;}.cls-190{fill:#977259;}.cls-191{fill:#a28059;}.cls-192{fill:#9e7660;}.cls-193{fill:#9b7b60;}.cls-194{fill:#ab8464;}.cls-195{fill:#8d6f57;}.cls-196{fill:#886951;}.cls-197{fill:#997a5f;}.cls-198{fill:#997963;}.cls-199{fill:#937352;}.cls-200{fill:#9c7860;}.cls-201{fill:#7f644c;}.cls-202{fill:#795e4b;}.cls-203{fill:#89705b;}.cls-204{fill:#765c48;}.cls-205{fill:#896952;}.cls-206{fill:#8e7458;}.cls-207{fill:#705b46;}.cls-208{fill:#93765d;}.cls-209{fill:#66523f;}.cls-210{fill:#947357;}.cls-211{fill:#8d6b51;}.cls-212{fill:#8c6e57;}.cls-213{fill:#96735b;}.cls-214{fill:#6f584b;}.cls-215{fill:#96785e;}.cls-216{fill:#7e624b;}.cls-217{fill:#856653;}.cls-218{fill:#7f624d;}.cls-219{fill:#705b48;}.cls-220{fill:#5e4d3d;}.cls-221{fill:#8d6d61;}.cls-222{fill:#6b513f;}.cls-223{fill:#8c6f5c;}.cls-224{fill:#645042;}.cls-225{fill:#735a47;}.cls-226{fill:#665143;}.cls-227{fill:#92735c;}.cls-228{fill:#8a6b4f;}.cls-229{fill:#85684f;}.cls-230{fill:#8d6e55;}.cls-231{fill:#6d5841;}.cls-232{fill:#745946;}.cls-233{fill:#614a3c;}.cls-234{fill:#785f52;}.cls-235{fill:#92735d;}.cls-236{fill:#7c674e;}.cls-237{fill:#705847;}.cls-238{fill:#876d53;}.cls-239{fill:#775c45;}.cls-240{fill:#8f6f56;}.cls-241{fill:#80645a;}</style><clipPath id="clip-path" transform="translate(-0.14 -112.2)"><path class="cls-1" d="M642.39,243.43S883,119.05,933.33,116.53s102-8.81,25.18,103.25S616,529.53,616,529.53s-272,198.94-376.48,250.57-292.12,136-225.39,0S239.34,542.76,239.34,542.76l10.46,41.86S152.24,691.15,185,713.81,418.34,618.93,570.7,515.68,852.44,243.27,818.44,238.24s-123.43,49-123.43,49Z"/></clipPath></defs><title>saturn</title><polygon class="cls-2" points="370.75 131.56 466.43 95.68 442.51 155.48 370.75 131.56"/><polygon class="cls-3" points="442.51 155.48 466.43 167.44 466.43 95.68 442.51 155.48"/><path class="cls-4" d="M442.66,315.52" transform="translate(-0.14 -112.2)"/><polygon class="cls-5" points="466.43 167.44 394.67 203.32 442.51 155.48 466.43 167.44"/><polygon class="cls-6" points="394.67 203.32 370.75 131.56 442.51 155.48 394.67 203.32"/><polygon class="cls-7" points="466.43 95.68 502.31 179.4 466.43 167.44 466.43 95.68"/><polygon class="cls-8" points="502.31 179.4 394.67 203.32 466.43 167.44 502.31 179.4"/><polygon class="cls-9" points="334.88 155.48 334.88 203.32 394.67 203.32 334.88 155.48"/><polygon class="cls-10" points="382.71 215.28 334.88 275.07 382.71 263.12 382.71 215.28"/><polygon class="cls-11" points="370.75 131.56 334.88 155.48 394.67 203.32 370.75 131.56"/><polygon class="cls-12" points="334.88 203.32 287.04 203.32 334.88 155.48 334.88 203.32"/><polygon class="cls-13" points="334.88 203.32 382.71 215.28 394.67 203.32 334.88 203.32"/><polygon class="cls-14" points="287.04 203.32 382.71 215.28 334.88 203.32 287.04 203.32"/><polygon class="cls-15" points="382.71 215.28 394.67 203.32 502.31 179.4 382.71 215.28"/><polygon class="cls-16" points="382.71 215.28 382.71 263.12 406.63 275.07 382.71 215.28"/><polygon class="cls-17" points="406.63 275.07 382.71 263.12 334.88 275.07 406.63 275.07"/><polygon class="cls-18" points="382.71 215.28 287.04 203.32 310.95 239.2 382.71 215.28"/><polygon class="cls-19" points="382.71 215.28 310.95 239.2 334.88 275.07 382.71 215.28"/><polygon class="cls-20" points="406.63 275.07 430.55 239.2 382.71 215.28 406.63 275.07"/><polygon class="cls-21" points="310.95 239.2 298.99 299 334.88 275.07 310.95 239.2"/><polygon class="cls-22" points="287.04 203.32 298.99 299 310.95 239.2 287.04 203.32"/><polygon class="cls-23" points="298.99 299 406.63 275.07 334.88 275.07 298.99 299"/><polygon class="cls-24" points="287.04 203.32 251.16 263.12 298.99 299 287.04 203.32"/><polygon class="cls-25" points="251.16 263.12 239.19 299 298.99 299 251.16 263.12"/><polygon class="cls-26" points="239.19 299 298.99 299 310.95 346.83 239.19 299"/><polygon class="cls-27" points="239.19 299 227.24 346.83 275.07 322.92 239.19 299"/><polygon class="cls-28" points="275.07 322.92 310.95 346.83 227.24 346.83 275.07 322.92"/><polygon class="cls-29" points="298.99 299 310.95 346.83 346.83 334.88 298.99 299"/><polygon class="cls-30" points="298.99 299 346.83 334.88 406.63 275.07 298.99 299"/><polygon class="cls-31" points="346.83 334.88 382.71 358.79 406.63 275.07 346.83 334.88"/><polygon class="cls-32" points="346.83 334.88 310.95 346.83 382.71 358.79 346.83 334.88"/><polygon class="cls-33" points="430.55 239.2 442.51 215.28 382.71 215.28 430.55 239.2"/><polygon class="cls-34" points="430.55 239.2 442.51 287.04 406.63 275.07 430.55 239.2"/><polygon class="cls-35" points="442.51 287.04 442.51 215.28 430.55 239.2 442.51 287.04"/><polygon class="cls-36" points="442.51 287.04 430.55 322.92 406.63 275.07 442.51 287.04"/><polygon class="cls-37" points="406.63 275.07 382.71 358.79 430.55 322.92 406.63 275.07"/><polygon class="cls-38" points="382.71 215.28 442.51 215.28 502.31 179.4 382.71 215.28"/><polygon class="cls-39" points="442.51 215.28 502.31 263.12 442.51 287.04 442.51 215.28"/><polygon class="cls-40" points="502.31 263.12 502.31 179.4 442.51 215.28 502.31 263.12"/><polygon class="cls-41" points="502.31 263.12 526.23 322.92 442.51 287.04 502.31 263.12"/><polygon class="cls-42" points="526.23 322.92 502.31 179.4 502.31 263.12 526.23 322.92"/><polygon class="cls-43" points="430.55 322.92 466.43 346.83 442.51 287.04 430.55 322.92"/><polygon class="cls-44" points="466.43 346.83 382.71 358.79 430.55 322.92 466.43 346.83"/><polygon class="cls-45" points="466.43 346.83 526.23 322.92 442.51 287.04 466.43 346.83"/><polygon class="cls-46" points="227.24 346.83 227.24 382.71 310.95 346.83 227.24 346.83"/><polygon class="cls-47" points="227.24 382.71 239.19 430.55 310.95 346.83 227.24 382.71"/><polygon class="cls-48" points="310.95 346.83 382.71 358.79 358.79 406.63 310.95 346.83"/><polygon class="cls-49" points="358.79 406.63 310.95 346.83 310.95 418.59 358.79 406.63"/><polygon class="cls-50" points="310.95 418.59 239.19 430.55 310.95 346.83 310.95 418.59"/><polygon class="cls-51" points="310.95 418.59 382.71 454.47 358.79 406.63 310.95 418.59"/><polygon class="cls-52" points="382.71 358.79 382.71 454.47 358.79 406.63 382.71 358.79"/><polygon class="cls-53" points="310.95 418.59 310.95 466.43 239.19 430.55 310.95 418.59"/><polygon class="cls-54" points="310.95 466.43 382.71 454.47 310.95 418.59 310.95 466.43"/><polygon class="cls-55" points="251.16 478.39 239.19 430.55 310.95 466.43 251.16 478.39"/><polygon class="cls-56" points="538.19 95.68 538.19 143.52 502.31 179.4 538.19 95.68"/><polygon class="cls-57" points="466.43 95.68 514.27 95.68 502.31 179.4 466.43 95.68"/><polygon class="cls-58" points="514.27 95.68 538.19 95.68 502.31 179.4 514.27 95.68"/><polygon class="cls-59" points="502.31 179.4 562.11 203.32 538.19 143.52 502.31 179.4"/><polygon class="cls-60" points="382.71 454.47 370.75 490.35 310.95 466.43 382.71 454.47"/><polygon class="cls-61" points="538.19 95.68 597.99 107.64 538.19 143.52 538.19 95.68"/><polygon class="cls-62" points="597.99 107.64 562.11 203.32 538.19 143.52 597.99 107.64"/><polygon class="cls-63" points="562.11 203.32 514.27 251.16 502.31 179.4 562.11 203.32"/><polygon class="cls-64" points="514.27 251.16 526.23 322.92 562.11 203.32 514.27 251.16"/><polygon class="cls-65" points="382.71 358.79 382.71 454.47 466.43 346.83 382.71 358.79"/><path class="cls-4" d="M466.58,459" transform="translate(-0.14 -112.2)"/><polygon class="cls-66" points="526.23 322.92 429.87 393.85 466.43 346.83 526.23 322.92"/><polygon class="cls-67" points="370.75 490.35 310.95 466.43 370.75 538.19 370.75 490.35"/><polygon class="cls-68" points="370.75 490.35 430.55 514.27 382.71 454.47 370.75 490.35"/><polygon class="cls-69" points="370.75 538.19 430.55 514.27 370.75 490.35 370.75 538.19"/><polygon class="cls-70" points="310.95 466.43 310.95 502.31 251.16 478.39 310.95 466.43"/><polygon class="cls-71" points="310.95 502.31 370.75 538.19 310.95 466.43 310.95 502.31"/><polygon class="cls-72" points="310.95 502.31 255.05 472.41 287.04 514.27 310.95 502.31"/><polygon class="cls-73" points="287.04 514.27 370.75 538.19 310.95 502.31 287.04 514.27"/><polygon class="cls-74" points="287.04 514.27 358.79 574.07 370.75 538.19 287.04 514.27"/><polygon class="cls-75" points="358.79 574.07 430.55 514.27 370.75 538.19 358.79 574.07"/><polygon class="cls-76" points="358.79 574.07 394.67 586.03 430.55 514.27 358.79 574.07"/><polygon class="cls-77" points="429.87 393.85 430.55 514.27 382.71 454.47 429.87 393.85"/><polygon class="cls-78" points="597.99 107.64 633.87 119.6 562.11 203.32 597.99 107.64"/><polygon class="cls-79" points="633.87 119.6 562.11 203.32 633.87 191.36 633.87 119.6"/><polygon class="cls-80" points="633.87 191.36 562.11 203.32 586.03 275.07 633.87 191.36"/><polygon class="cls-81" points="586.03 275.07 526.23 322.92 562.11 203.32 586.03 275.07"/><polygon class="cls-82" points="586.03 275.07 633.87 275.07 633.87 191.36 586.03 275.07"/><polygon class="cls-83" points="633.87 275.07 526.23 322.92 586.03 275.07 633.87 275.07"/><polygon class="cls-84" points="429.87 393.85 478.39 442.51 430.55 514.27 429.87 393.85"/><polyline class="cls-85" points="454.47 418.6 478.39 442.51 526.23 322.92 429.87 393.85 454.47 418.6"/><polygon class="cls-86" points="478.39 442.51 490.35 502.31 430.55 514.27 478.39 442.51"/><polygon class="cls-87" points="490.35 502.31 526.23 322.92 478.39 442.51 490.35 502.31"/><polygon class="cls-88" points="430.55 514.27 466.43 586.03 490.35 502.31 430.55 514.27"/><polygon class="cls-89" points="466.43 586.03 442.51 597.99 430.55 514.27 466.43 586.03"/><polygon class="cls-90" points="442.51 597.99 394.67 586.03 430.55 514.27 442.51 597.99"/><polygon class="cls-91" points="490.35 502.31 502.31 574.07 466.43 586.03 490.35 502.31"/><polygon class="cls-92" points="502.31 574.07 526.23 550.15 490.35 502.31 502.31 574.07"/><polygon class="cls-93" points="526.23 550.15 514.27 597.99 502.31 574.07 526.23 550.15"/><polygon class="cls-94" points="514.27 597.99 502.31 574.07 466.43 586.03 514.27 597.99"/><polygon class="cls-76" points="514.27 597.99 442.51 597.99 466.43 586.03 514.27 597.99"/><polygon class="cls-95" points="633.87 191.36 657.79 203.32 633.87 119.6 633.87 191.36"/><polygon class="cls-96" points="657.79 203.32 633.87 275.07 633.87 191.36 657.79 203.32"/><polygon class="cls-97" points="633.87 119.6 705.63 179.4 657.79 203.32 633.87 119.6"/><polygon class="cls-98" points="705.63 179.4 633.87 275.07 657.79 203.32 705.63 179.4"/><polygon class="cls-99" points="526.23 322.92 526.23 466.43 490.35 502.31 526.23 322.92"/><polygon class="cls-100" points="526.23 466.43 526.23 550.15 490.35 502.31 526.23 466.43"/><polygon class="cls-101" points="514.27 597.99 574.07 574.07 526.23 550.15 514.27 597.99"/><polygon class="cls-102" points="526.23 466.43 574.07 574.07 526.23 550.15 526.23 466.43"/><polygon class="cls-86" points="526.23 322.92 574.07 346.83 633.87 275.07 526.23 322.92"/><polygon class="cls-103" points="574.07 346.83 597.99 382.71 633.87 275.07 574.07 346.83"/><polygon class="cls-104" points="597.99 382.71 574.07 346.83 526.23 322.92 597.99 382.71"/><polygon class="cls-105" points="597.99 382.71 526.23 430.55 526.23 322.92 597.99 382.71"/><polygon class="cls-106" points="597.99 382.71 562.11 478.39 526.23 430.55 597.99 382.71"/><polygon class="cls-107" points="562.11 478.39 526.23 466.43 526.23 430.55 562.11 478.39"/><polygon class="cls-108" points="574.07 574.07 562.11 478.39 526.23 466.43 574.07 574.07"/><polygon class="cls-109" points="597.99 382.71 609.95 430.55 562.11 478.39 597.99 382.71"/><polygon class="cls-110" points="609.95 430.55 562.11 478.39 574.07 574.07 609.95 430.55"/><polygon class="cls-111" points="609.95 430.55 633.87 430.55 597.99 382.71 609.95 430.55"/><polygon class="cls-112" points="609.95 430.55 574.07 574.07 633.87 430.55 609.95 430.55"/><polygon class="cls-91" points="645.83 538.19 574.07 574.07 609.26 489.61 645.83 538.19"/><polygon class="cls-113" points="645.83 538.19 633.87 430.55 609.26 489.61 645.83 538.19"/><polygon class="cls-114" points="633.87 275.07 633.87 430.55 597.99 382.71 633.87 275.07"/><polygon class="cls-115" points="633.87 275.07 681.71 334.88 633.87 358.79 633.87 275.07"/><polygon class="cls-103" points="681.71 334.88 717.59 346.83 633.87 275.07 681.71 334.88"/><polygon class="cls-80" points="717.59 346.83 633.87 358.79 681.71 334.88 717.59 346.83"/><polygon class="cls-49" points="717.59 346.83 633.87 430.55 633.87 358.79 717.59 346.83"/><polygon class="cls-76" points="645.83 538.19 693.67 490.35 633.87 430.55 645.83 538.19"/><polygon class="cls-76" points="693.67 490.35 708.38 468.77 633.87 430.55 693.67 490.35"/><polygon class="cls-116" points="717.59 346.83 693.67 406.63 633.87 430.55 717.59 346.83"/><polygon class="cls-117" points="693.67 406.63 633.87 430.55 708.38 468.77 693.67 406.63"/><path class="cls-4" d="M705.78,578.64" transform="translate(-0.14 -112.2)"/><polygon class="cls-106" points="707.66 467.59 717.59 346.83 693.67 406.63 707.66 467.59"/><polygon class="cls-118" points="705.63 179.4 741.51 227.24 633.87 275.07 705.63 179.4"/><polygon class="cls-119" points="741.51 227.24 705.63 287.04 633.87 275.07 741.51 227.24"/><polygon class="cls-98" points="705.63 287.04 729.55 334.88 741.51 227.24 705.63 287.04"/><polygon class="cls-81" points="729.55 334.88 633.87 275.07 705.63 287.04 729.55 334.88"/><polygon class="cls-120" points="729.55 334.88 717.59 346.83 633.87 275.07 729.55 334.88"/><polygon class="cls-81" points="707.42 470.57 741.51 406.63 717.59 346.83 707.42 470.57"/><polygon class="cls-119" points="717.59 346.83 729.55 334.88 741.51 406.63 717.59 346.83"/><polygon class="cls-64" points="741.51 227.24 753.47 322.92 729.55 334.88 741.51 227.24"/><polygon class="cls-81" points="753.47 322.92 741.51 406.63 729.55 334.88 753.47 322.92"/><g class="cls-121"><polygon class="cls-122" points="633.87 131.56 669.75 155.48 693.67 107.64 633.87 131.56"/><polygon class="cls-1" points="669.75 155.48 693.67 179.4 681.71 131.56 669.75 155.48"/><path class="cls-123" d="M717.74,231.8" transform="translate(-0.14 -112.2)"/><polygon class="cls-124" points="669.75 155.48 693.67 179.4 681.71 131.56 669.75 155.48"/><polygon class="cls-125" points="693.67 179.4 741.51 155.48 681.71 131.56 693.67 179.4"/><polygon class="cls-126" points="693.67 107.64 741.51 107.64 681.71 131.56 693.67 107.64"/><polygon class="cls-127" points="741.51 107.64 741.51 155.48 681.71 131.56 741.51 107.64"/><polygon class="cls-128" points="693.67 107.64 753.47 83.72 741.51 107.64 693.67 107.64"/><polygon class="cls-129" points="753.47 83.72 741.51 155.48 741.51 107.64 753.47 83.72"/><polygon class="cls-130" points="753.47 83.72 777.39 59.8 777.39 83.72 753.47 83.72"/><polygon class="cls-131" points="777.39 83.72 741.51 155.48 753.47 83.72 777.39 83.72"/><polygon class="cls-132" points="777.39 83.72 765.43 143.52 741.51 155.48 777.39 83.72"/><polygon class="cls-133" points="765.43 143.52 801.31 131.56 777.39 83.72 765.43 143.52"/><polygon class="cls-134" points="777.39 59.8 801.31 131.56 777.39 83.72 777.39 59.8"/><polygon class="cls-135" points="801.31 131.56 825.23 131.56 825.23 107.64 801.31 131.56"/><polygon class="cls-136" points="777.39 59.8 825.23 107.64 801.31 131.56 777.39 59.8"/><polygon class="cls-137" points="777.39 59.8 849.15 107.64 825.23 107.64 777.39 59.8"/><polygon class="cls-138" points="849.15 107.64 825.23 131.56 825.23 107.64 849.15 107.64"/><polygon class="cls-139" points="777.39 59.8 825.23 47.84 849.15 107.64 777.39 59.8"/><polygon class="cls-140" points="849.15 107.64 849.15 131.56 849.15 167.44 823.66 131.56 849.15 107.64"/><polygon class="cls-140" points="849.15 167.44 813.27 167.44 823.66 131.56 849.15 167.44"/><polygon class="cls-141" points="825.23 47.84 861.11 23.92 873.07 71.76 825.23 47.84"/><polygon class="cls-142" points="873.07 71.76 849.15 107.64 825.23 47.84 873.07 71.76"/><polygon class="cls-143" points="873.07 71.76 849.15 167.44 849.15 107.64 873.07 71.76"/><polygon class="cls-144" points="873.07 71.76 908.95 71.76 861.11 23.92 873.07 71.76"/><polygon class="cls-145" points="908.95 71.76 849.15 167.44 873.07 71.76 908.95 71.76"/><polygon class="cls-146" points="908.95 71.76 932.87 35.88 861.11 23.92 908.95 71.76"/><path class="cls-123" d="M909.1,184" transform="translate(-0.14 -112.2)"/><polygon class="cls-147" points="920.91 107.64 908.95 71.76 932.87 35.88 920.91 107.64"/><polygon class="cls-148" points="920.91 107.64 849.15 167.44 908.95 71.76 920.91 107.64"/><polygon class="cls-149" points="861.11 23.92 918.99 4.88 932.87 35.88 861.11 23.92"/><polygon class="cls-150" points="919.77 6.61 968.75 0 932.87 35.88 919.77 6.61"/><polygon class="cls-151" points="968.75 0 956.79 59.8 932.87 35.88 968.75 0"/><polygon class="cls-152" points="956.79 59.8 920.91 107.64 932.87 35.88 956.79 59.8"/><polygon class="cls-153" points="956.79 59.8 993.84 9.47 968.75 0 956.79 59.8"/><polygon class="cls-154" points="993.84 9.47 1004.63 35.88 956.79 59.8 993.84 9.47"/><polygon class="cls-155" points="1004.63 35.88 968.75 107.64 956.79 59.8 1004.63 35.88"/><polygon class="cls-156" points="968.75 107.64 920.91 107.64 956.79 59.8 968.75 107.64"/><polygon class="cls-157" points="968.75 107.64 920.91 167.44 920.91 107.64 968.75 107.64"/><polygon class="cls-158" points="920.91 167.44 849.15 167.44 920.91 107.64 920.91 167.44"/><polygon class="cls-159" points="920.91 167.44 861.11 191.36 813.27 167.44 920.91 167.44"/><polygon class="cls-160" points="813.27 167.44 861.11 191.36 861.11 227.24 813.27 167.44"/><polygon class="cls-161" points="861.11 227.24 920.91 167.44 861.11 191.36 861.11 227.24"/><polygon class="cls-162" points="861.11 227.24 837.19 251.16 813.27 167.44 861.11 227.24"/><polygon class="cls-163" points="813.27 167.44 789.35 191.36 837.19 251.16 813.27 167.44"/><polygon class="cls-164" points="789.35 191.36 765.43 227.24 801.31 239.2 789.35 191.36"/><polygon class="cls-165" points="789.35 191.36 801.31 239.2 837.19 251.16 789.35 191.36"/><polygon class="cls-166" points="837.19 251.16 789.35 251.16 765.43 227.24 837.19 251.16"/><polygon class="cls-167" points="789.35 251.16 765.43 227.24 765.43 287.04 789.35 251.16"/><polygon class="cls-168" points="837.19 251.16 765.43 287.04 789.35 251.16 837.19 251.16"/><polygon class="cls-169" points="765.43 227.24 741.51 287.04 765.43 287.04 765.43 227.24"/><polygon class="cls-170" points="837.19 251.16 765.43 310.96 765.43 287.04 837.19 251.16"/><polygon class="cls-171" points="765.43 310.96 741.51 287.04 765.43 287.04 765.43 310.96"/><polygon class="cls-172" points="765.43 227.24 705.63 287.04 741.51 287.04 765.43 227.24"/><polygon class="cls-173" points="705.63 287.04 765.43 310.96 741.51 287.04 705.63 287.04"/><polygon class="cls-174" points="765.43 310.96 729.55 334.88 705.63 287.04 765.43 310.96"/><polygon class="cls-175" points="705.63 287.04 705.63 322.92 729.55 334.88 705.63 287.04"/><polygon class="cls-176" points="705.63 322.92 669.75 382.71 729.55 334.88 705.63 322.92"/><polygon class="cls-177" points="705.63 287.04 669.75 382.71 705.63 322.92 705.63 287.04"/><polygon class="cls-178" points="705.63 287.04 669.75 322.92 669.75 382.71 705.63 287.04"/><polygon class="cls-179" points="669.75 382.71 645.83 406.63 669.75 322.92 669.75 382.71"/><polygon class="cls-180" points="669.75 322.92 633.87 346.84 645.83 406.63 669.75 322.92"/><polygon class="cls-181" points="645.83 406.63 609.95 406.63 633.87 346.84 645.83 406.63"/><polygon class="cls-182" points="645.83 406.63 598 442.51 609.95 406.63 645.83 406.63"/><polygon class="cls-183" points="633.87 346.84 586.03 394.68 609.95 406.63 633.87 346.84"/><polygon class="cls-184" points="586.03 394.68 598 442.51 609.95 406.63 586.03 394.68"/><polygon class="cls-185" points="598 442.51 550.15 478.39 586.03 394.68 598 442.51"/><polygon class="cls-186" points="550.15 478.39 514.27 478.39 574.07 430.55 550.15 478.39"/><polygon class="cls-187" points="514.27 478.39 586.03 394.68 574.07 430.55 514.27 478.39"/><polygon class="cls-186" points="514.27 478.39 514.27 442.51 586.03 394.68 514.27 478.39"/><polygon class="cls-188" points="514.27 478.39 466.44 538.19 550.15 478.39 514.27 478.39"/><polygon class="cls-189" points="514.27 442.51 466.44 538.19 514.27 478.39 514.27 442.51"/><polygon class="cls-190" points="514.27 442.51 454.48 478.39 466.44 538.19 514.27 442.51"/><polygon class="cls-191" points="466.44 538.19 418.6 550.15 454.48 478.39 466.44 538.19"/><polygon class="cls-192" points="454.48 478.39 382.72 526.23 418.6 550.15 454.48 478.39"/><polygon class="cls-193" points="466.44 538.19 406.63 574.07 418.6 550.15 466.44 538.19"/><polygon class="cls-194" points="406.63 574.07 382.72 526.23 418.6 550.15 406.63 574.07"/><polygon class="cls-195" points="382.72 526.23 346.84 562.11 406.63 574.07 382.72 526.23"/><polygon class="cls-178" points="406.63 574.07 370.76 597.99 346.84 562.11 406.63 574.07"/><polygon class="cls-196" points="382.72 526.23 322.92 562.11 346.84 562.11 382.72 526.23"/><polygon class="cls-197" points="322.92 562.11 370.76 597.99 346.84 562.11 322.92 562.11"/><polygon class="cls-198" points="322.92 562.11 275.08 574.07 370.76 597.99 322.92 562.11"/><polygon class="cls-199" points="370.76 597.99 334.88 621.91 275.08 574.07 370.76 597.99"/><polygon class="cls-200" points="275.08 574.07 263.12 597.99 334.88 621.91 275.08 574.07"/><polygon class="cls-201" points="334.88 621.91 299 645.83 263.12 597.99 334.88 621.91"/><polygon class="cls-202" points="275.08 574.07 239.2 609.95 263.12 597.99 275.08 574.07"/><polygon class="cls-203" points="239.2 609.95 299 645.83 263.12 597.99 239.2 609.95"/><polygon class="cls-204" points="275.08 574.07 215.28 597.99 239.2 609.95 275.08 574.07"/><polygon class="cls-205" points="239.2 609.95 227.24 657.79 215.28 597.99 239.2 609.95"/><polygon class="cls-206" points="227.24 657.79 299 645.83 239.2 609.95 227.24 657.79"/><polygon class="cls-207" points="299 645.83 215.28 693.67 227.24 657.79 299 645.83"/><polygon class="cls-208" points="215.28 597.99 215.28 693.67 227.24 657.79 215.28 597.99"/><polygon class="cls-209" points="215.28 693.67 191.36 705.63 215.28 645.83 215.28 693.67"/><polygon class="cls-210" points="215.28 597.99 191.36 705.63 215.28 645.83 215.28 597.99"/><polygon class="cls-211" points="215.28 597.99 166.14 620.46 203.32 657.79 215.28 597.99"/><polygon class="cls-212" points="191.36 705.63 166.14 620.46 203.32 657.79 191.36 705.63"/><polygon class="cls-213" points="166.14 620.46 155.48 657.79 191.36 705.63 166.14 620.46"/><polygon class="cls-214" points="201.76 604.17 179.4 574.07 166.14 620.46 201.76 604.17"/><polygon class="cls-215" points="191.36 705.63 131.56 657.79 155.48 657.79 191.36 705.63"/><polygon class="cls-216" points="131.56 657.79 179.4 574.07 155.48 657.79 131.56 657.79"/><polygon class="cls-217" points="191.36 705.63 143.52 717.59 131.56 657.79 191.36 705.63"/><polygon class="cls-218" points="143.52 717.59 119.6 729.55 131.56 657.79 143.52 717.59"/><polygon class="cls-219" points="131.56 657.79 119.6 729.55 95.68 729.55 131.56 657.79"/><polygon class="cls-220" points="119.6 729.55 59.8 753.47 95.68 729.55 119.6 729.55"/><polygon class="cls-221" points="131.56 657.79 59.8 753.47 95.68 729.55 131.56 657.79"/><polygon class="cls-222" points="59.8 753.47 23.92 741.51 95.68 705.63 59.8 753.47"/><polygon class="cls-223" points="23.92 741.51 131.56 657.79 95.68 705.63 23.92 741.51"/><polygon class="cls-224" points="23.92 741.51 0 729.55 0 693.67 23.92 741.51"/><polygon class="cls-225" points="0 693.67 84.69 694.42 23.92 741.51 0 693.67"/><polygon class="cls-226" points="1.46 694.74 25.38 646.9 85.18 694.74 1.46 694.74"/><polygon class="cls-227" points="84.69 694.42 131.56 657.79 24.89 646.58 84.69 694.42"/><polygon class="cls-228" points="131.56 657.79 119.48 621.1 19.82 646.78 131.56 657.79"/><polygon class="cls-229" points="119.6 621.91 179.4 574.07 131.56 657.79 119.6 621.91"/><polygon class="cls-230" points="17.87 647.11 179.4 574.07 119.6 621.91 17.87 647.11"/><polygon class="cls-231" points="179.4 574.07 203.32 538.19 179.4 538.19 179.4 574.07"/><polygon class="cls-232" points="47.84 633.87 179.4 538.19 179.4 574.07 47.84 633.87"/><polygon class="cls-233" points="23.92 645.83 71.76 574.07 47.84 633.87 23.92 645.83"/><polygon class="cls-234" points="71.76 574.07 179.4 538.19 47.84 633.87 71.76 574.07"/><polygon class="cls-235" points="71.76 574.07 119.6 526.23 179.4 538.19 71.76 574.07"/><polygon class="cls-236" points="249.66 472.41 239.2 430.55 119.6 526.23 249.66 472.41"/><polygon class="cls-237" points="179.4 538.19 215.28 478.39 203.32 538.19 179.4 538.19"/><polygon class="cls-238" points="215.28 478.39 119.6 526.23 179.4 538.19 215.28 478.39"/><polygon class="cls-239" points="203.32 538.19 251.16 478.39 215.28 478.39 203.32 538.19"/><polygon class="cls-240" points="215.28 478.39 236.7 446.26 251.16 478.39 215.28 478.39"/><path class="cls-123" d="M239.34,554.72" transform="translate(-0.14 -112.2)"/><polygon class="cls-241" points="119.6 526.23 239.2 442.51 215.28 478.39 119.6 526.23"/></g><path class="cls-240" d="M236.44,558.74" transform="translate(-0.14 -112.2)"/><polygon class="cls-139" points="753.47 83.72 768.14 69.05 668.37 117.91 753.47 83.72"/><polygon class="cls-138" points="800.25 54.08 846.97 33.35 825.23 47.84 800.25 54.08"/><polyline class="cls-140" points="817.51 152.82 802.19 178.52 813.56 167.8 817.66 152.51"/><polygon class="cls-140" points="296.11 568.82 382.72 526.23 323.91 562.11 296.11 568.82"/></svg>