<?xml version="1.0" encoding="utf-8"?>
<!-- Generator: Adobe Illustrator 16.0.4, SVG Export Plug-In . SVG Version: 6.00 Build 0)  -->
<!DOCTYPE svg PUBLIC "-//W3C//DTD SVG 1.1//EN" "http://www.w3.org/Graphics/SVG/1.1/DTD/svg11.dtd">
<svg version="1.1" id="Layer_1" xmlns="http://www.w3.org/2000/svg" xmlns:xlink="http://www.w3.org/1999/xlink" x="0px" y="0px"
	 width="1000px" height="1000px" viewBox="0 0 1000 1000" enable-background="new 0 0 1000 1000" xml:space="preserve">
<g>
	<defs>
		<path id="SVGID_1_" d="M855.871,601.775c9.398-28.93,65.332-50.619,65.549-52.047c-27.287-9.258-46.932-35.066-46.932-65.48
			c-0.002-30.418,19.643-56.229,46.932-65.484c-0.217-1.427-56.146-23.119-65.545-52.046c-9.404-28.938,1.312-59.565,24.422-76.797
			c-0.648-1.286-60.561-4.614-78.443-29.228c-17.867-24.588-2.605-82.564-3.635-83.584c-23.523,16.597-55.918,17.306-80.506-0.558
			c-24.615-17.884-33.947-48.959-25.385-76.483c-1.277-0.66-51.703,31.862-80.639,22.46c-28.93-9.399-50.623-65.33-52.051-65.546
			c-9.256,27.287-35.064,46.932-65.48,46.932c-30.415,0-68.332-46.486-69.755-46.255c-0.371,28.812-18.848,63.479-47.773,72.877
			c-28.936,9.402-79.363-35.131-80.643-34.471c8.562,27.522,0.232,64.604-24.381,82.487c-24.587,17.863-85.564-3.401-86.584-2.371
			c16.596,23.522,19.305,58.921,1.441,83.508c-17.882,24.613-78.795,25.942-79.444,27.228
			c23.105,17.232,36.825,53.865,27.423,82.799c-9.398,28.926-68.331,44.614-68.547,46.042c27.285,9.258,47.93,38.07,47.93,68.484
			c0.001,30.414-49.487,67.33-49.256,68.751c28.811,0.373,61.475,19.85,70.873,48.775c9.403,28.936-7.321,61.564-30.426,78.797
			c0.648,1.285,66.565,1.613,84.447,26.227c17.864,24.586-1.397,84.562-0.368,85.582c23.523-16.596,60.923-20.305,85.51-2.441
			c24.614,17.883,30.654,60.424,22.091,87.945c1.278,0.66,58.001-45.324,86.935-35.924c28.928,9.398,48.619,71.334,50.047,71.551
			c9.257-27.285,34.065-51.936,64.479-51.936c30.417,0,64.329,53.494,65.752,53.264c0.371-28.811,21.85-64.48,50.775-73.879
			c28.936-9.402,78.363,33.131,79.643,32.469c-8.564-27.521-1.234-63.602,23.379-81.484c24.588-17.865,59.986-15.154,83.512,1.443
			c1.029-1.02-18.234-59.996-0.371-84.584c17.885-24.615,79.801-26.939,80.447-28.227
			C858.189,663.34,846.469,630.713,855.871,601.775z"/>
	</defs>
	<clipPath id="SVGID_2_">
		<use xlink:href="#SVGID_1_"  overflow="visible"/>
	</clipPath>
	<g clip-path="url(#SVGID_2_)">
		<polygon fill="#FB780F" points="101.899,189.622 149.304,237.029 173.008,213.326 		"/>
		<polygon fill="#EF5F00" points="101.899,189.622 149.304,237.029 149.304,284.434 		"/>
		<polygon fill="#F96B07" points="149.304,284.434 173.008,213.326 149.304,237.029 		"/>
		<polygon fill="#DD4300" points="149.304,284.434 220.414,331.84 173.008,213.326 		"/>
		<polygon fill="#FF7400" points="220.414,331.84 101.899,308.138 149.304,284.434 		"/>
		<polygon fill="#FF8F19" points="101.899,308.138 101.899,189.622 149.304,284.434 		"/>
		<polygon fill="#EE5100" points="101.899,189.622 149.304,142.217 173.008,213.326 		"/>
		<polygon fill="#ED5400" points="173.008,213.326 220.414,237.029 220.414,331.84 		"/>
		<polygon fill="#E15300" points="149.304,142.217 220.414,237.029 173.008,213.326 		"/>
		<polygon fill="#F46100" points="149.304,142.217 173.008,118.514 220.414,142.217 		"/>
		<polygon fill="#F25D0B" points="220.414,142.217 220.414,237.029 149.304,142.217 		"/>
		<polygon fill="#E96B00" points="220.414,237.029 291.521,260.731 220.414,284.434 		"/>
		<polygon fill="#F87E07" points="291.521,260.731 267.818,189.622 220.414,237.029 		"/>
		<polygon fill="#F25C01" points="267.818,189.622 220.414,142.217 220.414,237.029 		"/>
		<polygon fill="#EA5F03" points="220.414,331.84 291.521,260.731 220.414,284.434 		"/>
		<polygon fill="#FF7F09" points="173.008,118.514 244.116,71.109 220.414,142.217 		"/>
		<polygon fill="#E44D00" points="220.414,142.217 267.818,189.622 244.116,71.109 		"/>
		<polygon fill="#FF7400" points="267.818,189.622 338.926,142.217 291.521,260.731 		"/>
		<polygon fill="#DA3A00" points="244.116,71.109 291.521,23.704 291.521,71.109 		"/>
		<polygon fill="#E95300" points="291.521,71.109 267.818,189.622 244.116,71.109 		"/>
		<polygon fill="#EA6700" points="291.521,71.109 338.926,142.217 267.818,189.622 		"/>
		<polygon fill="#DC3D00" points="291.521,23.704 338.926,142.217 291.521,71.109 		"/>
		<path fill="none" stroke="#FFFFFF" stroke-miterlimit="10" d="M386.332,94.812"/>
		<polygon fill="#F69321" points="291.521,260.731 338.926,260.731 338.926,142.217 		"/>
		<polygon fill="#F47003" points="291.521,260.731 291.521,331.84 220.414,331.84 		"/>
		<polygon fill="#EB7307" points="291.521,331.84 338.926,260.731 291.521,260.731 		"/>
		<polygon fill="#FF9522" points="338.926,260.731 362.629,284.434 338.926,142.217 		"/>
		<polygon fill="#F87C07" points="362.629,284.434 291.521,331.84 338.926,260.731 		"/>
		<polygon fill="#EE6B00" points="362.629,284.434 410.036,237.029 338.926,142.217 		"/>
		<polygon fill="#DF4900" points="338.926,142.217 386.332,118.514 410.036,237.029 		"/>
		<polygon fill="#E74B07" points="386.332,118.514 291.521,23.704 338.926,142.217 		"/>
		<polygon fill="#EB6000" points="220.414,331.84 244.116,402.948 291.521,331.84 		"/>
		<polygon fill="#FF8819" points="244.116,402.948 338.926,426.651 291.521,331.84 		"/>
		<polygon fill="#EC5800" points="338.926,426.651 362.629,284.434 291.521,331.84 		"/>
		<polygon fill="#FFAA4D" points="101.899,308.138 30.79,284.434 101.899,189.622 		"/>
		<polygon fill="#FF8D20" points="30.79,284.434 7.087,355.543 101.899,308.138 		"/>
		<polygon fill="#F5830B" points="101.899,308.138 101.899,402.948 7.087,355.543 		"/>
		<path fill="none" stroke="#FFFFFF" stroke-miterlimit="10" d="M101.899,402.948"/>
		<polygon fill="#FC911F" points="101.899,450.353 101.899,308.138 220.414,331.84 		"/>
		<polygon fill="#E46E04" points="101.899,450.353 244.116,402.948 220.414,331.84 		"/>
		<polygon fill="#E86300" points="101.899,450.353 338.926,426.651 244.116,402.948 		"/>
		<polygon fill="#DD4100" points="291.521,23.704 386.332,0.001 338.926,71.109 		"/>
		<polygon fill="#DB4900" points="386.332,0.001 386.332,118.514 338.926,71.109 		"/>
		<polygon fill="#D03400" points="410.036,237.029 433.738,142.217 386.332,118.514 		"/>
		<polygon fill="#F05600" points="386.332,0.001 433.738,142.217 386.332,118.514 		"/>
		<polygon fill="#F89842" points="362.629,284.434 481.145,331.84 410.036,237.029 		"/>
		<polygon fill="#E85700" points="481.145,331.84 433.738,142.217 410.036,237.029 		"/>
		<polygon fill="#F55F0D" points="338.926,426.651 433.738,450.353 362.629,284.434 		"/>
		<polygon fill="#F16A00" points="433.738,450.353 481.145,331.84 362.629,284.434 		"/>
		<polygon fill="#FF6C14" points="433.738,142.217 528.551,94.812 410.036,71.109 		"/>
		<polygon fill="#F46800" points="386.332,0.001 528.551,94.812 410.036,71.109 		"/>
		<polygon fill="#F76005" points="481.145,331.84 575.955,308.138 528.551,213.326 		"/>
		<polygon fill="#E03E00" points="528.551,213.326 433.738,142.217 481.145,331.84 		"/>
		<polygon fill="#FA690D" points="528.551,94.812 528.551,213.326 433.738,142.217 		"/>
		<polygon fill="#FF7713" points="528.551,94.812 575.955,308.138 528.551,213.326 		"/>
		<polygon fill="#F15902" points="386.332,0.001 481.145,0.001 528.551,94.812 		"/>
		<polygon fill="#FD7005" points="528.551,94.812 599.658,47.407 481.145,0.001 		"/>
		<polygon fill="#FA6714" points="481.145,0.001 575.955,0 599.658,47.407 		"/>
		<polygon fill="#E65200" points="599.658,47.407 528.551,94.812 599.658,189.622 		"/>
		<polygon fill="#F67601" points="599.658,189.622 575.955,308.138 528.551,94.812 		"/>
		<polygon fill="#FF7109" points="575.955,0 647.062,0 599.658,47.407 		"/>
		<polygon fill="#FF6712" points="647.062,0 599.658,189.622 599.658,47.407 		"/>
		<polygon fill="#EF6400" points="599.658,189.622 647.062,189.622 623.361,94.812 		"/>
		<polygon fill="#FC8F1A" points="647.062,189.622 575.955,308.138 599.658,189.622 		"/>
		<polygon fill="#F25309" points="647.062,189.622 647.062,0 623.361,94.812 		"/>
		<polygon fill="#F27105" points="647.062,189.622 623.361,355.543 575.955,308.138 		"/>
		<polygon fill="#FFA730" points="623.361,355.543 481.145,331.84 575.955,308.138 		"/>
		<polygon fill="#FF7420" points="481.145,331.84 504.848,474.055 433.738,450.353 		"/>
		<polygon fill="#F05C00" points="504.848,474.055 552.252,379.246 481.145,331.84 		"/>
		<polygon fill="#E14800" points="552.252,379.246 623.361,355.543 481.145,331.84 		"/>
		<polygon fill="#D74100" points="623.361,355.543 504.848,474.055 552.252,379.246 		"/>
		<polygon fill="#F25E08" points="338.926,426.651 338.926,545.166 433.738,450.353 		"/>
		<polygon fill="#FB6300" points="338.926,545.166 338.926,426.651 196.711,521.463 		"/>
		<polygon fill="#EA5005" points="338.926,545.166 504.848,474.055 433.738,450.353 		"/>
		<polygon fill="#E04800" points="196.711,521.463 101.899,450.353 196.711,474.055 		"/>
		<polygon fill="#FF7B10" points="196.711,474.055 338.926,426.651 101.899,450.353 		"/>
		<polygon fill="#CF5100" points="196.711,474.055 196.711,521.463 338.926,426.651 		"/>
		<polygon fill="#FE7E17" points="7.087,355.543 101.899,450.353 101.899,402.948 		"/>
		<polygon fill="#E36500" points="101.899,450.353 54.493,521.461 7.087,355.543 		"/>
		<polygon fill="#EE6201" points="54.493,521.461 196.711,521.463 101.899,450.353 		"/>
		<polygon fill="#FF7410" points="647.062,0 741.873,47.407 647.062,71.109 		"/>
		<polygon fill="#F86C07" points="647.062,71.109 694.469,165.919 741.873,47.407 		"/>
		<polygon fill="#D13A00" points="694.469,165.919 647.062,189.622 647.062,71.109 		"/>
		<polygon fill="#D65100" points="694.469,165.919 647.062,189.622 670.766,284.434 		"/>
		<polygon fill="#E35D00" points="670.766,284.434 623.361,355.543 647.062,189.622 		"/>
		<polygon fill="#F04B02" points="670.766,284.434 694.469,284.434 694.469,165.919 		"/>
		<polygon fill="#F55E11" points="694.469,284.434 765.576,284.434 694.469,165.919 		"/>
		<polygon fill="#FF7916" points="765.576,284.434 694.469,165.919 765.576,189.622 		"/>
		<polygon fill="#EA5301" points="741.873,47.407 765.576,189.622 694.469,165.919 		"/>
		<polygon fill="#FA6704" points="670.766,284.434 694.469,379.246 765.576,284.434 		"/>
		<polygon fill="#EC6F01" points="694.469,379.246 623.361,355.543 670.766,284.434 		"/>
		<polygon fill="#FF7D00" points="694.469,379.246 623.361,450.353 623.361,355.543 		"/>
		<polygon fill="#E14808" points="623.361,450.353 504.848,474.055 623.361,355.543 		"/>
		<polygon fill="#F34F00" points="504.848,474.055 552.252,545.166 623.361,450.353 		"/>
		<polygon fill="#D64900" points="552.252,545.166 338.926,545.166 504.848,474.055 		"/>
		<polygon fill="#FD830B" points="7.087,355.543 7.087,545.166 54.493,521.461 		"/>
		<polygon fill="#FF8D16" points="7.087,545.166 196.711,521.463 54.493,521.461 		"/>
		<polygon fill="#FF9209" points="694.469,379.246 741.873,426.651 765.576,284.434 		"/>
		<polygon fill="#D73F00" points="741.873,426.651 623.361,450.353 694.469,379.246 		"/>
		<polygon fill="#D33400" points="623.361,450.353 694.469,568.869 741.873,426.651 		"/>
		<polygon fill="#DB3B05" points="694.469,568.869 552.252,545.166 623.361,450.353 		"/>
		<polygon fill="#E65300" points="741.873,47.407 836.688,94.812 765.576,189.622 		"/>
		<polygon fill="#EB5107" points="836.688,94.812 765.576,284.434 765.576,189.622 		"/>
		<polygon fill="#E13F05" points="836.688,94.812 907.795,213.326 836.688,260.731 		"/>
		<polygon fill="#FF7414" points="836.688,260.731 765.576,284.434 836.688,94.812 		"/>
		<polygon fill="#E46600" points="836.688,260.731 836.688,379.246 765.576,284.434 		"/>
		<polygon fill="#EC5700" points="836.688,379.246 907.795,213.326 836.688,260.731 		"/>
		<polygon fill="#FF710A" points="836.688,379.246 741.873,426.651 765.576,284.434 		"/>
		<polygon fill="#F97918" points="836.688,379.246 765.576,474.055 741.873,426.651 		"/>
		<polygon fill="#FF7113" points="765.576,474.055 694.469,568.869 741.873,426.651 		"/>
		<polygon fill="#F75303" points="765.576,474.055 812.984,521.461 836.688,379.246 		"/>
		<polygon fill="#DC3E03" points="812.984,521.461 694.469,568.869 765.576,474.055 		"/>
		<polygon fill="#F97409" points="836.688,379.246 860.389,450.353 907.795,355.543 		"/>
		<polygon fill="#E75800" points="907.795,355.543 907.795,213.326 836.688,379.246 		"/>
		<polygon fill="#F5710C" points="860.389,450.353 812.984,521.461 836.688,379.246 		"/>
		<polygon fill="#F56B00" points="860.389,450.353 907.795,474.055 907.795,355.543 		"/>
		<polygon fill="#FF731D" points="907.795,474.055 812.984,521.461 860.389,450.353 		"/>
		<polygon fill="#FF771E" points="836.688,94.812 955.199,213.325 907.795,213.326 		"/>
		<polygon fill="#FF8B20" points="955.199,213.325 907.795,355.543 907.795,213.326 		"/>
		<polygon fill="#F37D14" points="907.795,355.543 978.902,260.731 955.199,213.325 		"/>
		<polygon fill="#EF7309" points="907.795,355.543 978.902,355.543 978.902,260.731 		"/>
		<polygon fill="#FC9F40" points="978.902,355.543 1026.307,379.246 978.902,260.731 		"/>
		<polygon fill="#F58917" points="1026.307,379.246 907.795,355.543 978.902,355.543 		"/>
		<polygon fill="#FF8210" points="1026.307,379.246 931.496,402.948 907.795,355.543 		"/>
		<polygon fill="#EF6200" points="931.496,402.948 907.795,355.543 907.795,474.055 		"/>
		<polygon fill="#FF8C20" points="907.795,474.055 1026.307,379.246 931.496,402.948 		"/>
		<polygon fill="#F85C17" points="552.252,545.166 552.252,616.273 694.469,568.869 		"/>
		<polygon fill="#E9580A" points="552.252,616.273 433.738,545.166 552.252,545.166 		"/>
		<polygon fill="#F34F00" points="338.926,545.166 410.036,663.68 433.738,545.166 		"/>
		<polygon fill="#FF6A27" points="433.738,545.166 552.252,616.273 481.145,663.68 		"/>
		<polygon fill="#D73F00" points="481.145,663.68 410.036,663.68 433.738,545.166 		"/>
		<polygon fill="#F45E12" points="481.145,663.68 504.848,758.49 552.252,616.273 		"/>
		<polygon fill="#DC4309" points="504.848,758.49 410.036,663.68 481.145,663.68 		"/>
		<polygon fill="#FF8E13" points="7.087,545.166 7.087,639.977 54.493,663.68 		"/>
		<polygon fill="#FFA532" points="7.087,545.166 54.493,663.68 125.602,545.166 		"/>
		<polygon fill="#F9A64E" points="7.087,639.977 78.196,758.49 54.493,663.68 		"/>
		<polygon fill="#F69328" points="78.196,758.49 125.602,545.166 54.493,663.68 		"/>
		<polygon fill="#FA7C0D" points="125.602,545.166 149.306,639.977 173.008,568.869 		"/>
		<polygon fill="#EC7D15" points="125.602,545.166 149.306,639.977 78.196,758.49 		"/>
		<polygon fill="#E06203" points="149.306,639.977 196.711,687.381 173.008,568.869 		"/>
		<polygon fill="#FBAB56" points="196.711,687.381 78.196,758.49 149.306,639.977 		"/>
		<polygon fill="#FF6A0D" points="196.711,687.381 267.818,663.68 196.711,568.869 		"/>
		<polygon fill="#F97105" points="196.711,687.381 267.818,734.787 267.818,663.68 		"/>
		<polygon fill="#FB7001" points="267.818,663.68 196.711,568.869 244.116,545.166 		"/>
		<polygon fill="#F46100" points="267.818,734.787 291.521,663.68 267.818,663.68 		"/>
		<polygon fill="#E35900" points="291.521,663.68 244.116,545.166 267.818,663.68 		"/>
		<polygon fill="#FF8F19" points="244.116,545.166 315.224,545.166 291.521,663.68 		"/>
		<polygon fill="#F97304" points="291.521,663.68 315.224,545.166 338.926,545.166 		"/>
		<polygon fill="#E15200" points="291.521,663.68 362.63,687.381 338.926,545.166 		"/>
		<polygon fill="#D84F00" points="267.818,734.787 362.63,687.381 291.521,663.68 		"/>
		<polygon fill="#DA4300" points="362.63,687.381 410.036,663.68 338.926,545.166 		"/>
		<polygon fill="#E85209" points="552.252,616.273 670.766,616.273 812.984,521.461 		"/>
		<polygon fill="#FF761C" points="552.252,616.273 647.062,687.381 670.766,616.273 		"/>
		<polygon fill="#D23F00" points="647.062,687.381 812.98,639.977 670.766,616.273 		"/>
		<polygon fill="#D33700" points="812.984,521.461 812.98,639.977 670.766,616.273 		"/>
		<polygon fill="#E64F00" points="504.848,758.49 647.062,687.381 552.252,616.273 		"/>
		<polygon fill="#E74E02" points="812.98,639.977 931.496,545.166 812.984,521.461 		"/>
		<polygon fill="#E24A04" points="931.496,545.166 907.795,474.055 812.984,521.461 		"/>
		<polygon fill="#FD7C0D" points="931.496,545.166 1026.307,379.246 907.795,474.055 		"/>
		<polygon fill="#E84800" points="812.98,639.977 836.688,734.787 931.496,545.166 		"/>
		<polygon fill="#E85B00" points="836.688,734.787 812.98,639.977 765.576,711.084 		"/>
		<polygon fill="#E15300" points="765.576,711.084 647.062,687.381 812.98,639.977 		"/>
		<polygon fill="#F56600" points="765.576,711.084 718.17,805.896 836.688,734.787 		"/>
		<polygon fill="#D84800" points="718.17,805.896 647.062,687.381 765.576,711.084 		"/>
		<polygon fill="#EA6300" points="718.17,805.896 647.062,687.381 599.658,758.49 		"/>
		<polygon fill="#F27601" points="718.17,805.896 504.848,805.896 599.658,758.49 		"/>
		<polygon fill="#FE6C16" points="647.062,687.381 504.848,758.49 599.658,758.49 		"/>
		<polygon fill="#F77309" points="504.848,805.896 504.848,758.49 599.658,758.49 		"/>
		<polygon fill="#F46100" points="196.711,687.381 244.116,805.896 267.818,734.787 		"/>
		<polygon fill="#E26200" points="244.116,805.896 362.63,687.381 267.818,734.787 		"/>
		<polygon fill="#FF8111" points="196.711,687.381 149.304,782.191 196.711,805.896 		"/>
		<polygon fill="#F67700" points="196.711,805.896 196.711,687.381 244.116,805.896 		"/>
		<polygon fill="#FF8511" points="196.711,805.896 244.116,877.006 244.116,805.896 		"/>
		<polygon fill="#F76800" points="244.116,877.006 149.304,782.191 196.711,805.896 		"/>
		<polygon fill="#FF8512" points="78.196,758.49 125.602,853.303 149.304,782.191 		"/>
		<polygon fill="#F69328" points="78.196,758.49 149.304,782.191 196.711,687.381 		"/>
		<polyline fill="#F26D00" points="196.711,924.41 244.116,877.006 149.304,782.191 196.711,924.41 196.711,924.41 		"/>
		<polygon fill="#F68300" points="1026.307,379.246 1026.307,497.758 931.496,545.166 		"/>
		<polygon fill="#FB821A" points="1026.307,497.758 1002.605,639.977 978.902,568.869 		"/>
		<polygon fill="#F96E05" points="978.902,568.869 931.496,545.166 1026.307,497.758 		"/>
		<polygon fill="#FF6A10" points="978.902,568.869 907.795,663.68 1002.605,639.977 		"/>
		<polygon fill="#FB5E11" points="907.795,663.68 931.496,545.166 978.902,568.869 		"/>
		<polygon fill="#E45A00" points="931.496,545.166 907.795,663.68 836.688,734.787 		"/>
		<polygon fill="#F36007" points="1002.605,639.977 955.199,782.191 907.795,663.68 		"/>
		<polygon fill="#F46800" points="955.199,782.191 836.688,734.787 907.795,663.68 		"/>
		<polygon fill="#DB4F00" points="362.63,687.381 386.332,758.49 410.036,663.68 		"/>
		<polygon fill="#FF9332" points="386.332,758.49 244.116,805.896 362.63,687.381 		"/>
		<polygon fill="#E1510C" points="386.332,758.49 457.44,829.6 410.036,663.68 		"/>
		<polygon fill="#D84100" points="457.44,829.6 504.848,758.49 410.036,663.68 		"/>
		<polygon fill="#F36806" points="457.44,829.6 504.848,924.41 504.848,758.49 		"/>
		<polygon fill="#F55C0E" points="244.116,805.896 244.116,877.006 338.926,829.6 		"/>
		<polygon fill="#E76403" points="338.926,829.6 386.332,758.49 244.116,805.896 		"/>
		<polygon fill="#F57A11" points="338.926,829.6 457.44,829.6 386.332,758.49 		"/>
		<polygon fill="#E75301" points="338.926,829.6 386.332,948.113 244.116,877.006 		"/>
		<path fill="none" stroke="#FFFFFF" stroke-miterlimit="10" d="M410.036,924.41"/>
		<polygon fill="#ED6300" points="386.332,948.113 457.44,829.6 338.926,829.6 		"/>
		<polygon fill="#FF7311" points="386.332,948.113 291.521,948.113 244.116,877.006 		"/>
		<polygon fill="#F45D04" points="291.521,948.113 196.711,924.41 244.116,877.006 		"/>
		<polygon fill="#F86700" points="291.521,948.113 362.629,995.518 386.332,948.113 		"/>
		<polygon fill="#F75D07" points="362.629,995.518 457.44,1019.221 481.145,971.814 		"/>
		<polygon fill="#E95205" points="481.145,971.814 457.44,829.6 362.629,995.518 		"/>
		<polygon fill="#ED5100" points="457.44,1019.221 552.252,1019.221 481.145,971.814 		"/>
		<polygon fill="#F45E0B" points="552.252,1019.221 457.44,829.6 481.145,971.814 		"/>
		<polygon fill="#FA6816" points="504.848,805.896 552.252,877.006 504.848,924.41 		"/>
		<polygon fill="#F25B00" points="552.252,877.006 552.252,1019.221 504.848,924.41 		"/>
		<polygon fill="#F66400" points="552.252,877.006 623.361,805.896 504.848,805.896 		"/>
		<polygon fill="#F16200" points="623.361,805.896 552.252,1019.221 552.252,877.006 		"/>
		<polygon fill="#EC5401" points="718.17,805.896 670.766,924.41 623.361,805.896 		"/>
		<polygon fill="#FA6A05" points="670.766,924.41 623.361,805.896 623.361,971.814 		"/>
		<polygon fill="#E34D00" points="623.361,971.814 694.469,995.518 670.766,924.41 		"/>
		<polygon fill="#E14F00" points="694.469,995.518 718.17,805.896 670.766,924.41 		"/>
		<polygon fill="#F65A11" points="694.469,995.518 552.252,1019.221 623.361,971.814 		"/>
		<polygon fill="#ED5409" points="623.361,971.814 623.361,805.896 552.252,1019.221 		"/>
		<polygon fill="#DC4800" points="718.17,805.896 765.576,900.707 789.279,805.896 		"/>
		<polygon fill="#F56000" points="789.279,805.896 836.688,734.787 718.17,805.896 		"/>
		<polygon fill="#E04900" points="765.576,900.707 860.389,829.6 789.279,805.896 		"/>
		<polygon fill="#F96E03" points="860.389,829.6 836.688,734.787 789.279,805.896 		"/>
		<polygon fill="#FB7E04" points="860.389,829.6 955.199,782.191 836.688,734.787 		"/>
		<polygon fill="#F36100" points="765.576,900.707 694.469,995.518 718.17,805.896 		"/>
		<polygon fill="#D63D00" points="694.469,995.518 789.279,924.41 765.576,900.707 		"/>
		<polygon fill="#EC5800" points="789.279,924.41 884.092,877.006 765.576,900.707 		"/>
		<polygon fill="#F96F02" points="765.576,900.707 860.389,829.6 884.092,877.006 		"/>
		<polygon fill="#F76301" points="884.092,877.006 955.199,782.191 860.389,829.6 		"/>
		<polygon fill="#EF6500" points="338.926,545.166 244.116,545.166 196.711,521.463 		"/>
		<polygon fill="#F25E08" points="7.087,545.166 196.711,521.463 125.602,545.166 		"/>
		<polygon fill="#DA4900" points="196.711,687.381 196.711,568.869 196.711,521.463 173.008,568.869 		"/>
		<polygon fill="#F16006" points="196.711,521.463 196.711,568.869 244.116,545.166 		"/>
		<polygon fill="#F16006" points="173.008,568.869 196.711,521.463 125.602,545.166 		"/>
		<polygon fill="#F87A00" points="196.711,924.41 125.602,853.303 149.304,782.191 		"/>
		<polygon fill="#E95205" points="457.44,829.6 362.629,995.518 386.332,948.113 		"/>
		<polygon fill="#E1510C" points="196.711,924.41 362.629,995.518 291.521,948.113 		"/>
		<polygon fill="#D84800" points="694.469,995.518 884.092,877.006 789.279,924.41 		"/>
		<polygon fill="#F9A64E" points="7.087,639.977 125.602,853.303 78.196,758.49 		"/>
		<polygon fill="#E95300" points="173.008,118.514 291.521,23.704 244.116,71.109 		"/>
		<polygon fill="#EC7D15" points="7.087,355.543 -16.615,545.166 7.087,545.166 		"/>
		<polygon fill="#F97304" points="-16.615,545.166 7.087,639.977 7.087,545.166 		"/>
	</g>
</g>
<g>
	<polygon fill="#FB780F" points="216,265.846 249.23,299.077 265.847,282.462 	"/>
	<polygon fill="#EF5F00" points="216,265.846 249.23,299.077 249.23,332.308 	"/>
	<polygon fill="#F96B07" points="249.23,332.308 265.847,282.462 249.23,299.077 	"/>
	<polygon fill="#DD4300" points="249.23,332.308 299.077,365.539 265.847,282.462 	"/>
	<polygon fill="#FF7400" points="299.077,365.539 216,348.924 249.23,332.308 	"/>
	<polygon fill="#FF8F19" points="216,348.924 216,265.846 249.23,332.308 	"/>
	<polygon fill="#EE5100" points="216,265.846 249.23,232.615 265.847,282.462 	"/>
	<polygon fill="#ED5400" points="265.847,282.462 299.077,299.077 299.077,365.539 	"/>
	<polygon fill="#E15300" points="249.23,232.615 299.077,299.077 265.847,282.462 	"/>
	<polygon fill="#F46100" points="249.23,232.615 265.847,216 299.077,232.615 	"/>
	<polygon fill="#F25D0B" points="299.077,232.615 299.077,299.077 249.23,232.615 	"/>
	<polygon fill="#E96B00" points="299.077,299.077 348.923,315.692 299.077,332.308 	"/>
	<polygon fill="#F87E07" points="348.923,315.692 332.308,265.846 299.077,299.077 	"/>
	<polygon fill="#F25C01" points="332.308,265.846 299.077,232.615 299.077,299.077 	"/>
	<polygon fill="#EA5F03" points="299.077,365.539 348.923,315.692 299.077,332.308 	"/>
	<polygon fill="#FF7F09" points="265.847,216 315.692,182.77 299.077,232.615 	"/>
	<polygon fill="#E44D00" points="299.077,232.615 332.308,265.846 315.692,182.77 	"/>
	<polygon fill="#FF7400" points="332.308,265.846 382.153,232.615 348.923,315.692 	"/>
	<polygon fill="#DA3A00" points="315.692,182.77 348.923,149.539 348.923,182.77 	"/>
	<polygon fill="#E95300" points="348.923,182.77 332.308,265.846 315.692,182.77 	"/>
	<polygon fill="#EA6700" points="348.923,182.77 382.153,232.615 332.308,265.846 	"/>
	<polygon fill="#DC3D00" points="348.923,149.539 382.153,232.615 348.923,182.77 	"/>
	<path fill="none" stroke="#FFFFFF" stroke-miterlimit="10" d="M415.384,199.385"/>
	<polygon fill="#F69321" points="348.923,315.692 382.153,315.692 382.153,232.615 	"/>
	<polygon fill="#F47003" points="348.923,315.692 348.923,365.539 299.077,365.539 	"/>
	<polygon fill="#EB7307" points="348.923,365.539 382.153,315.692 348.923,315.692 	"/>
	<polygon fill="#FF9522" points="382.153,315.692 398.769,332.308 382.153,232.615 	"/>
	<polygon fill="#F87C07" points="398.769,332.308 348.923,365.539 382.153,315.692 	"/>
	<polygon fill="#EE6B00" points="398.769,332.308 432,299.077 382.153,232.615 	"/>
	<polygon fill="#DF4900" points="382.153,232.615 415.384,216 432,299.077 	"/>
	<polygon fill="#E74B07" points="415.384,216 348.923,149.539 382.153,232.615 	"/>
	<polygon fill="#EB6000" points="299.077,365.539 315.692,415.385 348.923,365.539 	"/>
	<polygon fill="#FF8819" points="315.692,415.385 382.153,432 348.923,365.539 	"/>
	<polygon fill="#EC5800" points="382.153,432 398.769,332.308 348.923,365.539 	"/>
	<polygon fill="#FFAA4D" points="216,348.924 166.153,332.308 216,265.846 	"/>
	<polygon fill="#FF8D20" points="166.153,332.308 149.538,382.154 216,348.924 	"/>
	<polygon fill="#F5830B" points="216,348.924 216,415.385 149.538,382.154 	"/>
	<path fill="none" stroke="#FFFFFF" stroke-miterlimit="10" d="M216,415.385"/>
	<polygon fill="#FC911F" points="216,448.615 216,348.924 299.077,365.539 	"/>
	<polygon fill="#E46E04" points="216,448.615 315.692,415.385 299.077,365.539 	"/>
	<polygon fill="#E86300" points="216,448.615 382.153,432 315.692,415.385 	"/>
	<polygon fill="#DD4100" points="348.923,149.539 415.384,132.924 382.153,182.77 	"/>
	<polygon fill="#DB4900" points="415.384,132.924 415.384,216 382.153,182.77 	"/>
	<polygon fill="#D03400" points="432,299.077 448.615,232.615 415.384,216 	"/>
	<polygon fill="#F05600" points="415.384,132.924 448.615,232.615 415.384,216 	"/>
	<polygon fill="#F89842" points="398.769,332.308 481.847,365.539 432,299.077 	"/>
	<polygon fill="#E85700" points="481.847,365.539 448.615,232.615 432,299.077 	"/>
	<polygon fill="#F55F0D" points="382.153,432 448.615,448.615 398.769,332.308 	"/>
	<polygon fill="#F16A00" points="448.615,448.615 481.847,365.539 398.769,332.308 	"/>
	<polygon fill="#FF6C14" points="448.615,232.615 515.078,199.385 432,182.77 	"/>
	<polygon fill="#F46800" points="415.384,132.924 515.078,199.385 432,182.77 	"/>
	<polygon fill="#F76005" points="481.847,365.539 548.309,348.924 515.078,282.462 	"/>
	<polygon fill="#E03E00" points="515.078,282.462 448.615,232.615 481.847,365.539 	"/>
	<polygon fill="#FA690D" points="515.078,199.385 515.078,282.462 448.615,232.615 	"/>
	<polygon fill="#FF7713" points="515.078,199.385 548.309,348.924 515.078,282.462 	"/>
	<polygon fill="#F15902" points="415.384,132.924 481.847,132.924 515.078,199.385 	"/>
	<polygon fill="#FD7005" points="515.078,199.385 564.924,166.154 481.847,132.924 	"/>
	<polygon fill="#FA6714" points="481.847,132.924 548.309,132.923 564.924,166.154 	"/>
	<polygon fill="#E65200" points="564.924,166.154 515.078,199.385 564.924,265.846 	"/>
	<polygon fill="#F67601" points="564.924,265.846 548.309,348.924 515.078,199.385 	"/>
	<polygon fill="#FF7109" points="548.309,132.923 598.154,132.923 564.924,166.154 	"/>
	<polygon fill="#FF6712" points="598.154,132.923 564.924,265.846 564.924,166.154 	"/>
	<polygon fill="#EF6400" points="564.924,265.846 598.154,265.846 581.539,199.385 	"/>
	<polygon fill="#FC8F1A" points="598.154,265.846 548.309,348.924 564.924,265.846 	"/>
	<polygon fill="#F25309" points="598.154,265.846 598.154,132.923 581.539,199.385 	"/>
	<polygon fill="#F27105" points="598.154,265.846 581.539,382.154 548.309,348.924 	"/>
	<polygon fill="#FFA730" points="581.539,382.154 481.847,365.539 548.309,348.924 	"/>
	<polygon fill="#FF7420" points="481.847,365.539 498.462,465.23 448.615,448.615 	"/>
	<polygon fill="#F05C00" points="498.462,465.23 531.693,398.77 481.847,365.539 	"/>
	<polygon fill="#E14800" points="531.693,398.77 581.539,382.154 481.847,365.539 	"/>
	<polygon fill="#D74100" points="581.539,382.154 498.462,465.23 531.693,398.77 	"/>
	<polygon fill="#F25E08" points="382.153,432 382.153,515.077 448.615,448.615 	"/>
	<polygon fill="#FB6300" points="382.153,515.077 382.153,432 282.462,498.462 	"/>
	<polygon fill="#EA5005" points="382.153,515.077 498.462,465.23 448.615,448.615 	"/>
	<polygon fill="#E04800" points="282.462,498.462 216,448.615 282.462,465.23 	"/>
	<polygon fill="#FF7B10" points="282.462,465.23 382.153,432 216,448.615 	"/>
	<polygon fill="#CF5100" points="282.462,465.23 282.462,498.462 382.153,432 	"/>
	<polygon fill="#FE7E17" points="149.538,382.154 216,448.615 216,415.385 	"/>
	<polygon fill="#E36500" points="216,448.615 182.769,498.461 149.538,382.154 	"/>
	<polygon fill="#EE6201" points="182.769,498.461 282.462,498.462 216,448.615 	"/>
	<polygon fill="#FF7410" points="598.154,132.923 664.615,166.154 598.154,182.77 	"/>
	<polygon fill="#F86C07" points="598.154,182.77 631.385,249.23 664.615,166.154 	"/>
	<polygon fill="#D13A00" points="631.385,249.23 598.154,265.846 598.154,182.77 	"/>
	<polygon fill="#D65100" points="631.385,249.23 598.154,265.846 614.77,332.308 	"/>
	<polygon fill="#E35D00" points="614.77,332.308 581.539,382.154 598.154,265.846 	"/>
	<polygon fill="#F04B02" points="614.77,332.308 631.385,332.308 631.385,249.23 	"/>
	<polygon fill="#F55E11" points="631.385,332.308 681.23,332.308 631.385,249.23 	"/>
	<polygon fill="#FF7916" points="681.23,332.308 631.385,249.23 681.23,265.846 	"/>
	<polygon fill="#EA5301" points="664.615,166.154 681.23,265.846 631.385,249.23 	"/>
	<polygon fill="#FA6704" points="614.77,332.308 631.385,398.77 681.23,332.308 	"/>
	<polygon fill="#EC6F01" points="631.385,398.77 581.539,382.154 614.77,332.308 	"/>
	<polygon fill="#FF7D00" points="631.385,398.77 581.539,448.615 581.539,382.154 	"/>
	<polygon fill="#E14808" points="581.539,448.615 498.462,465.23 581.539,382.154 	"/>
	<polygon fill="#F34F00" points="498.462,465.23 531.693,515.077 581.539,448.615 	"/>
	<polygon fill="#D64900" points="531.693,515.077 382.153,515.077 498.462,465.23 	"/>
	<polygon fill="#FD830B" points="149.538,382.154 149.538,515.077 182.769,498.461 	"/>
	<polygon fill="#FF8D16" points="149.538,515.077 282.462,498.462 182.769,498.461 	"/>
	<polygon fill="#FF9209" points="631.385,398.77 664.615,432 681.23,332.308 	"/>
	<polygon fill="#D73F00" points="664.615,432 581.539,448.615 631.385,398.77 	"/>
	<polygon fill="#D33400" points="581.539,448.615 631.385,531.692 664.615,432 	"/>
	<polygon fill="#DB3B05" points="631.385,531.692 531.693,515.077 581.539,448.615 	"/>
	<polygon fill="#E65300" points="664.615,166.154 731.078,199.385 681.23,265.846 	"/>
	<polygon fill="#EB5107" points="731.078,199.385 681.23,332.308 681.23,265.846 	"/>
	<polygon fill="#E13F05" points="731.078,199.385 780.924,282.462 731.078,315.692 	"/>
	<polygon fill="#FF7414" points="731.078,315.692 681.23,332.308 731.078,199.385 	"/>
	<polygon fill="#E46600" points="731.078,315.692 731.078,398.77 681.23,332.308 	"/>
	<polygon fill="#EC5700" points="731.078,398.77 780.924,282.462 731.078,315.692 	"/>
	<polygon fill="#FF710A" points="731.078,398.77 664.615,432 681.23,332.308 	"/>
	<polygon fill="#F97918" points="731.078,398.77 681.23,465.23 664.615,432 	"/>
	<polygon fill="#FF7113" points="681.23,465.23 631.385,531.692 664.615,432 	"/>
	<polygon fill="#F75303" points="681.23,465.23 714.463,498.461 731.078,398.77 	"/>
	<polygon fill="#DC3E03" points="714.463,498.461 631.385,531.692 681.23,465.23 	"/>
	<polygon fill="#F97409" points="731.078,398.77 747.693,448.615 780.924,382.154 	"/>
	<polygon fill="#E75800" points="780.924,382.154 780.924,282.462 731.078,398.77 	"/>
	<polygon fill="#F5710C" points="747.693,448.615 714.463,498.461 731.078,398.77 	"/>
	<polygon fill="#F56B00" points="747.693,448.615 780.924,465.23 780.924,382.154 	"/>
	<polygon fill="#FF731D" points="780.924,465.23 714.463,498.461 747.693,448.615 	"/>
	<polygon fill="#FF771E" points="731.078,199.385 814.154,282.461 780.924,282.462 	"/>
	<polygon fill="#FF8B20" points="814.154,282.461 780.924,382.154 780.924,282.462 	"/>
	<polygon fill="#F37D14" points="780.924,382.154 830.77,315.692 814.154,282.461 	"/>
	<polygon fill="#EF7309" points="780.924,382.154 830.77,382.154 830.77,315.692 	"/>
	<polygon fill="#FC9F40" points="830.77,382.154 864,398.77 830.77,315.692 	"/>
	<polygon fill="#F58917" points="864,398.77 780.924,382.154 830.77,382.154 	"/>
	<polygon fill="#FF8210" points="864,398.77 797.539,415.385 780.924,382.154 	"/>
	<polygon fill="#EF6200" points="797.539,415.385 780.924,382.154 780.924,465.23 	"/>
	<polygon fill="#FF8C20" points="780.924,465.23 864,398.77 797.539,415.385 	"/>
	<polygon fill="#F85C17" points="531.693,515.077 531.693,564.923 631.385,531.692 	"/>
	<polygon fill="#E9580A" points="531.693,564.923 448.615,515.077 531.693,515.077 	"/>
	<polygon fill="#F34F00" points="382.153,515.077 432,598.153 448.615,515.077 	"/>
	<polygon fill="#FF6A27" points="448.615,515.077 531.693,564.923 481.847,598.153 	"/>
	<polygon fill="#D73F00" points="481.847,598.153 432,598.153 448.615,515.077 	"/>
	<polygon fill="#F45E12" points="481.847,598.153 498.462,664.615 531.693,564.923 	"/>
	<polygon fill="#DC4309" points="498.462,664.615 432,598.153 481.847,598.153 	"/>
	<polygon fill="#FF8E13" points="149.538,515.077 149.538,581.538 182.769,598.153 	"/>
	<polygon fill="#FFA532" points="149.538,515.077 182.769,598.153 232.615,515.077 	"/>
	<polygon fill="#F9A64E" points="149.538,581.538 199.385,664.615 182.769,598.153 	"/>
	<polygon fill="#F69328" points="199.385,664.615 232.615,515.077 182.769,598.153 	"/>
	<polygon fill="#FA7C0D" points="232.615,515.077 249.231,581.538 265.847,531.692 	"/>
	<polygon fill="#EC7D15" points="232.615,515.077 249.231,581.538 199.385,664.615 	"/>
	<polygon fill="#E06203" points="249.231,581.538 282.462,614.77 265.847,531.692 	"/>
	<polygon fill="#FBAB56" points="282.462,614.77 199.385,664.615 249.231,581.538 	"/>
	<polygon fill="#FF6A0D" points="282.462,614.77 332.308,598.153 282.462,531.692 	"/>
	<polygon fill="#F97105" points="282.462,614.77 332.308,648 332.308,598.153 	"/>
	<polygon fill="#FB7001" points="332.308,598.153 282.462,531.692 315.692,515.077 	"/>
	<polygon fill="#F46100" points="332.308,648 348.923,598.153 332.308,598.153 	"/>
	<polygon fill="#E35900" points="348.923,598.153 315.692,515.077 332.308,598.153 	"/>
	<polygon fill="#FF8F19" points="315.692,515.077 365.538,515.077 348.923,598.153 	"/>
	<polygon fill="#F97304" points="348.923,598.153 365.538,515.077 382.153,515.077 	"/>
	<polygon fill="#E15200" points="348.923,598.153 398.77,614.77 382.153,515.077 	"/>
	<polygon fill="#D84F00" points="332.308,648 398.77,614.77 348.923,598.153 	"/>
	<polygon fill="#DA4300" points="398.77,614.77 432,598.153 382.153,515.077 	"/>
	<polygon fill="#E85209" points="531.693,564.923 614.77,564.923 714.463,498.461 	"/>
	<polygon fill="#FF761C" points="531.693,564.923 598.154,614.77 614.77,564.923 	"/>
	<polygon fill="#D23F00" points="598.154,614.77 714.461,581.539 614.77,564.923 	"/>
	<polygon fill="#D33700" points="714.463,498.461 714.461,581.539 614.77,564.923 	"/>
	<polygon fill="#E64F00" points="498.462,664.615 598.154,614.77 531.693,564.923 	"/>
	<polygon fill="#E74E02" points="714.461,581.539 797.539,515.077 714.463,498.461 	"/>
	<polygon fill="#E24A04" points="797.539,515.077 780.924,465.23 714.463,498.461 	"/>
	<polygon fill="#FD7C0D" points="797.539,515.077 864,398.77 780.924,465.23 	"/>
	<polygon fill="#E84800" points="714.461,581.539 731.078,648 797.539,515.077 	"/>
	<polygon fill="#E85B00" points="731.078,648 714.461,581.539 681.23,631.385 	"/>
	<polygon fill="#E15300" points="681.23,631.385 598.154,614.77 714.461,581.539 	"/>
	<polygon fill="#F56600" points="681.23,631.385 648,697.847 731.078,648 	"/>
	<polygon fill="#D84800" points="648,697.847 598.154,614.77 681.23,631.385 	"/>
	<polygon fill="#EA6300" points="648,697.847 598.154,614.77 564.924,664.615 	"/>
	<polygon fill="#F27601" points="648,697.847 498.462,697.847 564.924,664.615 	"/>
	<polygon fill="#FE6C16" points="598.154,614.77 498.462,664.615 564.924,664.615 	"/>
	<polygon fill="#F77309" points="498.462,697.847 498.462,664.615 564.924,664.615 	"/>
	<polygon fill="#F46100" points="282.462,614.77 315.692,697.847 332.308,648 	"/>
	<polygon fill="#E26200" points="315.692,697.847 398.77,614.77 332.308,648 	"/>
	<polygon fill="#FF8111" points="282.462,614.77 249.23,681.23 282.462,697.847 	"/>
	<polygon fill="#F67700" points="282.462,697.847 282.462,614.77 315.692,697.847 	"/>
	<polygon fill="#FF8511" points="282.462,697.847 315.692,747.692 315.692,697.847 	"/>
	<polygon fill="#F76800" points="315.692,747.692 249.23,681.23 282.462,697.847 	"/>
	<polygon fill="#FF8512" points="199.385,664.615 232.615,731.077 249.23,681.23 	"/>
	<polygon fill="#F69328" points="199.385,664.615 249.23,681.23 282.462,614.77 	"/>
	<polyline fill="#F26D00" points="282.462,780.923 315.692,747.692 249.23,681.23 282.462,780.923 282.462,780.923 	"/>
	<polygon fill="#F68300" points="864,398.77 864,481.846 797.539,515.077 	"/>
	<polygon fill="#FB821A" points="864,481.846 847.385,581.539 830.77,531.692 	"/>
	<polygon fill="#F96E05" points="830.77,531.692 797.539,515.077 864,481.846 	"/>
	<polygon fill="#FF6A10" points="830.77,531.692 780.924,598.154 847.385,581.539 	"/>
	<polygon fill="#FB5E11" points="780.924,598.154 797.539,515.077 830.77,531.692 	"/>
	<polygon fill="#E45A00" points="797.539,515.077 780.924,598.154 731.078,648 	"/>
	<polygon fill="#F36007" points="847.385,581.539 814.154,681.23 780.924,598.154 	"/>
	<polygon fill="#F46800" points="814.154,681.23 731.078,648 780.924,598.154 	"/>
	<polygon fill="#DB4F00" points="398.77,614.77 415.384,664.615 432,598.153 	"/>
	<polygon fill="#FF9332" points="415.384,664.615 315.692,697.847 398.77,614.77 	"/>
	<polygon fill="#E1510C" points="415.384,664.615 465.23,714.462 432,598.153 	"/>
	<polygon fill="#D84100" points="465.23,714.462 498.462,664.615 432,598.153 	"/>
	<polygon fill="#F36806" points="465.23,714.462 498.462,780.923 498.462,664.615 	"/>
	<polygon fill="#F55C0E" points="315.692,697.847 315.692,747.692 382.153,714.462 	"/>
	<polygon fill="#E76403" points="382.153,714.462 415.384,664.615 315.692,697.847 	"/>
	<polygon fill="#F57A11" points="382.153,714.462 465.23,714.462 415.384,664.615 	"/>
	<polygon fill="#E75301" points="382.153,714.462 415.384,797.539 315.692,747.692 	"/>
	<path fill="none" stroke="#FFFFFF" stroke-miterlimit="10" d="M432,780.923"/>
	<polygon fill="#ED6300" points="415.384,797.539 465.23,714.462 382.153,714.462 	"/>
	<polygon fill="#FF7311" points="415.384,797.539 348.923,797.539 315.692,747.692 	"/>
	<polygon fill="#F45D04" points="348.923,797.539 282.462,780.923 315.692,747.692 	"/>
	<polygon fill="#F86700" points="348.923,797.539 398.769,830.77 415.384,797.539 	"/>
	<polygon fill="#F75D07" points="398.769,830.77 465.23,847.385 481.847,814.154 	"/>
	<polygon fill="#E95205" points="481.847,814.154 465.23,714.462 398.769,830.77 	"/>
	<polygon fill="#ED5100" points="465.23,847.385 531.693,847.385 481.847,814.154 	"/>
	<polygon fill="#F45E0B" points="531.693,847.385 465.23,714.462 481.847,814.154 	"/>
	<polygon fill="#FA6816" points="498.462,697.847 531.693,747.692 498.462,780.923 	"/>
	<polygon fill="#F25B00" points="531.693,747.692 531.693,847.385 498.462,780.923 	"/>
	<polygon fill="#F66400" points="531.693,747.692 581.539,697.847 498.462,697.847 	"/>
	<polygon fill="#F16200" points="581.539,697.847 531.693,847.385 531.693,747.692 	"/>
	<polygon fill="#EC5401" points="648,697.847 614.77,780.923 581.539,697.847 	"/>
	<polygon fill="#FA6A05" points="614.77,780.923 581.539,697.847 581.539,814.154 	"/>
	<polygon fill="#E34D00" points="581.539,814.154 631.385,830.77 614.77,780.923 	"/>
	<polygon fill="#E14F00" points="631.385,830.77 648,697.847 614.77,780.923 	"/>
	<polygon fill="#F65A11" points="631.385,830.77 531.693,847.385 581.539,814.154 	"/>
	<polygon fill="#ED5409" points="581.539,814.154 581.539,697.847 531.693,847.385 	"/>
	<polygon fill="#DC4800" points="648,697.847 681.23,764.308 697.846,697.847 	"/>
	<polygon fill="#F56000" points="697.846,697.847 731.078,648 648,697.847 	"/>
	<polygon fill="#E04900" points="681.23,764.308 747.693,714.462 697.846,697.847 	"/>
	<polygon fill="#F96E03" points="747.693,714.462 731.078,648 697.846,697.847 	"/>
	<polygon fill="#FB7E04" points="747.693,714.462 814.154,681.23 731.078,648 	"/>
	<polygon fill="#F36100" points="681.23,764.308 631.385,830.77 648,697.847 	"/>
	<polygon fill="#D63D00" points="631.385,830.77 697.846,780.923 681.23,764.308 	"/>
	<polygon fill="#EC5800" points="697.846,780.923 764.309,747.692 681.23,764.308 	"/>
	<polygon fill="#F96F02" points="681.23,764.308 747.693,714.462 764.309,747.692 	"/>
	<polygon fill="#F76301" points="764.309,747.692 814.154,681.23 747.693,714.462 	"/>
	<polygon fill="#EF6500" points="382.153,515.077 315.692,515.077 282.462,498.462 	"/>
	<polygon fill="#F25E08" points="149.538,515.077 282.462,498.462 232.615,515.077 	"/>
	<polygon fill="#DA4900" points="282.462,614.77 282.462,531.692 282.462,498.462 265.847,531.692 	"/>
	<polygon fill="#F16006" points="282.462,498.462 282.462,531.692 315.692,515.077 	"/>
	<polygon fill="#F16006" points="265.847,531.692 282.462,498.462 232.615,515.077 	"/>
	<polygon fill="#F87A00" points="282.462,780.923 232.615,731.077 249.23,681.23 	"/>
	<polygon fill="#E95205" points="465.23,714.462 398.769,830.77 415.384,797.539 	"/>
	<polygon fill="#E1510C" points="282.462,780.923 398.769,830.77 348.923,797.539 	"/>
	<polygon fill="#D84800" points="631.385,830.77 764.309,747.692 697.846,780.923 	"/>
	<polygon fill="#F9A64E" points="149.538,581.538 232.615,731.077 199.385,664.615 	"/>
	<polygon fill="#E95300" points="265.847,216 348.923,149.539 315.692,182.77 	"/>
	<polygon fill="#EC7D15" points="149.538,382.154 132.923,515.077 149.538,515.077 	"/>
	<polygon fill="#F97304" points="132.923,515.077 149.538,581.538 149.538,515.077 	"/>
</g>
</svg>
