<svg id="Layer_1" data-name="Layer 1" xmlns="http://www.w3.org/2000/svg" viewBox="0 0 1000 1000"><defs><style>.cls-1{fill:none;}.cls-2{fill:#c8b7a9;}.cls-3{fill:#b7a89b;}.cls-4{fill:#c4b4a6;}.cls-5{fill:#d7c4b5;}.cls-6{fill:#d1bcad;}.cls-7{fill:#b3a497;}.cls-8{fill:#dcc8b8;}.cls-9{fill:#c1b0a2;}.cls-10{fill:#d5c2b2;}.cls-11{fill:#e9d3c2;}.cls-12{fill:#dac6b6;}.cls-13{fill:#d1beaf;}.cls-14{fill:#c7b4a7;}.cls-15{fill:#c3b2a3;}</style></defs><title>venus</title><path class="cls-1" d="M55.69,729.53l0.22,0.42L142.6,749Z"/><path class="cls-1" d="M909.74,623.41l-68.46,242h0l68.47-242h0Z"/><path class="cls-1" d="M97.55,796.75L97.76,797l73.86-23.82Z"/><path class="cls-1" d="M233.54,427.67L27.89,334.94l-0.16.47,205.85,92.31Z"/><polygon class="cls-1" points="723.02 188.81 438.16 24.93 438.14 25.02 722.95 189.12 723.02 188.81"/><polygon class="cls-1" points="571.55 478.32 524.55 502.63 524.65 502.66 571.55 478.32"/><path class="cls-1" d="M434.94,814.62l85.65,185h0L435.06,814.65Z"/><polygon class="cls-1" points="203.88 762.96 289.46 781.98 204.22 762.85 203.88 762.96"/><polygon class="cls-1" points="532.84 715.6 532.84 715.67 907.61 620.78 907.61 620.78 532.84 715.6"/><polygon class="cls-1" points="366.06 265.37 371.81 268.73 372.4 268.7 366.06 265.37"/><polygon class="cls-2" points="233.54 427.67 233.58 427.71 242.7 431.8 233.54 427.67"/><polygon class="cls-2" points="532.84 715.6 520.6 718.7 513.4 508.5 513.4 508.5 242.7 431.8 433.9 629.6 520.55 718.78 532.84 715.67 532.84 715.6"/><polygon class="cls-2" points="513.45 508.42 513.52 508.44 524.65 502.66 524.55 502.63 513.49 508.35 513.45 508.42"/><polygon class="cls-2" points="513.4 508.5 513.4 508.5 513.4 508.5 513.4 508.5"/><path class="cls-3" d="M800.95,456.66h0l2.13,0.12,189.27,35.94,7.29-11A498.35,498.35,0,0,0,971.6,333.48l-4.42-2.55Z"/><polygon class="cls-4" points="991.5 494.05 803.45 457.34 909.08 618.55 991.5 494.05"/><polygon class="cls-4" points="991.5 494.05 992.37 492.74 803.1 456.8 803.45 457.34 991.5 494.05"/><polygon class="cls-5" points="909.76 623.42 910.7 620.1 910.67 620.11 909.74 623.41 909.76 623.42"/><path class="cls-5" d="M910.58,620l0.12,0,0,0.11h0l65.84,31.66A499.7,499.7,0,0,0,1000,500c0-1.43,0-2.86,0-4.29l-6.05-1.18Z"/><polygon class="cls-5" points="907.61 620.78 909.26 620.37 909.26 620.36 907.61 620.78 907.61 620.78"/><path class="cls-5" d="M994.8,493.2l-0.88,1.33,6.05,1.18q-0.06-7-.31-14l-7.29,11Z"/><polygon class="cls-5" points="909.08 618.55 909.96 619.89 910.3 620.1 909.26 620.36 909.26 620.37 910.58 620.03 993.92 494.52 991.5 494.05 909.08 618.55"/><polygon class="cls-5" points="993.92 494.52 994.8 493.2 992.37 492.74 991.5 494.05 993.92 494.52"/><polygon class="cls-3" points="525.5 502.9 525.81 511.89 908.41 619.57 908.58 619.32 908.4 619.05 631.53 447.29 571.55 478.32 524.65 502.66 525.5 502.9"/><polygon class="cls-3" points="513.4 508.5 513.4 508.5 513.4 508.5 513.4 508.5"/><polygon class="cls-3" points="524.65 502.66 513.52 508.44 525.81 511.89 525.5 502.9 524.65 502.66"/><polygon class="cls-3" points="908.58 619.32 908.65 619.2 908.4 619.05 908.58 619.32"/><polygon class="cls-3" points="908.58 619.32 908.41 619.57 908.82 619.68 908.58 619.32"/><polygon class="cls-3" points="908.82 619.68 909.93 620 908.65 619.2 908.58 619.32 908.82 619.68"/><polygon class="cls-3" points="910.3 620.1 909.96 619.89 910.05 620.03 910.3 620.1"/><polygon class="cls-6" points="966.45 330.5 966.1 330.3 624.7 330.3 800.91 456.64 966.45 330.5"/><polygon class="cls-6" points="800.91 456.64 800.95 456.66 967.18 330.92 966.45 330.5 800.91 456.64"/><polygon class="cls-7" points="631.79 447.16 908.27 618.84 803.45 457.34 800.7 456.8 800.84 456.69 631.88 447.11 631.79 447.16"/><polygon class="cls-7" points="800.91 456.69 800.9 456.7 800.89 456.69 800.84 456.69 800.7 456.8 803.45 457.34 803.1 456.8 800.97 456.68 801 456.7 800.91 456.69"/><polygon class="cls-7" points="908.71 619.11 909.08 618.55 803.45 457.34 803.45 457.34 908.27 618.84 908.71 619.11"/><polygon class="cls-7" points="803.45 457.34 803.1 456.8 803.45 457.34 803.45 457.34"/><polygon class="cls-7" points="909.96 619.89 909.08 618.55 908.71 619.11 909.96 619.89"/><polygon class="cls-7" points="908.4 619.05 908.27 618.84 631.79 447.16 631.53 447.29 908.4 619.05"/><polygon class="cls-7" points="908.65 619.2 908.71 619.11 908.27 618.84 908.4 619.05 908.65 619.2"/><polygon class="cls-7" points="908.65 619.2 909.93 620 910.05 620.03 909.96 619.89 908.71 619.11 908.65 619.2"/><polygon class="cls-7" points="800.9 456.7 800.91 456.69 800.89 456.69 800.9 456.7"/><path class="cls-2" d="M723,188.81l-0.07.31L967.27,329.88l2.38-1.82A501.65,501.65,0,0,0,751.56,67.81L724.4,189.6Z"/><path class="cls-2" d="M968,330.3l2-1.26-0.35-1-2.38,1.82Z"/><path class="cls-2" d="M967.18,330.92l4.42,2.55-0.17-.46L968,330.3Z"/><polygon class="cls-2" points="966.72 330.3 966.1 330.3 966.45 330.5 966.72 330.3"/><polygon class="cls-2" points="966.45 330.5 967.18 330.92 968 330.3 966.72 330.3 966.45 330.5"/><path class="cls-2" d="M971.43,333l-0.57-1.59L968,330.3Z"/><path class="cls-8" d="M723,188.81L750.42,67.14A497.69,497.69,0,0,0,500,0a505.42,505.42,0,0,0-56,3.1l-5.89,21.83Z"/><path class="cls-8" d="M724.4,189.6L751.56,67.81l-1.15-.67L723,188.81Z"/><path class="cls-8" d="M970.85,331.4c-0.28-.79-0.56-1.57-0.85-2.36l-2,1.26Z"/><path class="cls-8" d="M970.86,331.42v0L968,330.3Z"/><polygon class="cls-9" points="966.1 330.3 722.8 189.8 722.95 189.12 438.14 25.02 427.5 64.47 624.7 330.3 966.1 330.3"/><polygon class="cls-9" points="966.1 330.3 966.72 330.3 967.27 329.88 722.95 189.12 722.8 189.8 966.1 330.3"/><polygon class="cls-9" points="968 330.3 967.27 329.88 966.72 330.3 968 330.3"/><path class="cls-10" d="M906.8,622l0.73-1.1L532.85,715.77,533.41,732,663.5,865.9l-1.22-.27,73.24,75.54a501.41,501.41,0,0,0,105.76-75.75l68.46-242Z"/><polygon class="cls-10" points="532.84 715.67 532.85 715.77 907.53 620.9 907.61 620.78 532.84 715.67"/><polygon class="cls-10" points="520.55 718.78 520.63 718.86 532.85 715.77 532.84 715.67 520.55 718.78"/><polygon class="cls-10" points="533.41 732.01 532.85 715.77 520.63 718.86 533.41 732.01"/><polygon class="cls-10" points="910.67 620.11 910.7 620 910.58 620.03 910.5 620.15 910.67 620.11"/><polygon class="cls-10" points="909.26 620.37 907.61 620.78 907.53 620.9 909.31 620.45 909.26 620.37"/><polygon class="cls-10" points="909.8 621.2 909.31 620.45 907.53 620.9 906.8 622 909.74 623.41 910.67 620.11 910.5 620.15 909.8 621.2"/><polygon class="cls-10" points="909.31 620.45 910.5 620.15 910.58 620.03 909.26 620.37 909.31 620.45"/><polygon class="cls-10" points="910.5 620.15 909.31 620.45 909.8 621.2 910.5 620.15"/><path class="cls-4" d="M841.29,865.4A500.25,500.25,0,0,0,975.52,655l-65.76-31.55Z"/><path class="cls-4" d="M909.76,623.42L975.52,655c0.35-1.07.68-2.13,1-3.2L910.7,620.1Z"/><path class="cls-11" d="M289.46,782l-85.58-19-0.23.07,64.1,179.86a497.34,497.34,0,0,0,54.67,24.65l112-153Z"/><path class="cls-12" d="M434.94,814.62l-0.23-.05L324.21,968.22A498.89,498.89,0,0,0,500,1000q10.35,0,20.59-.42Z"/><path class="cls-12" d="M434.41,814.5l-112,153,1.79,0.67,110.5-153.65Z"/><polygon class="cls-6" points="434.9 814.3 434.83 814.39 434.94 814.62 435.06 814.65 434.9 814.3"/><path class="cls-6" d="M204.7,762.7l-0.49.15L289.46,782,434.6,814.23l0.1-.13,0.08,0.17,0.12,0,225.22,49.57L533.46,733.66l0.14,3.94L430,630.58,53.45,725.15q1.11,2.2,2.24,4.38L142.6,749Z"/><polygon class="cls-6" points="519.3 719.2 519.38 719.18 519.3 719.1 520.55 718.78 433.9 629.6 429.99 630.58 533.6 737.6 533.46 733.66 519.38 719.18 519.3 719.2"/><polygon class="cls-6" points="662.28 865.63 663.5 865.9 533.41 732.01 533.46 733.66 660.12 863.87 660.7 864 662.28 865.63"/><polygon class="cls-6" points="519.3 719.1 519.38 719.18 520.63 718.86 520.55 718.78 519.3 719.1"/><polygon class="cls-6" points="520.63 718.86 519.38 719.18 533.46 733.66 533.41 732.01 520.63 718.86"/><polygon class="cls-6" points="289.46 781.98 434.41 814.5 434.6 814.23 289.46 781.98"/><polygon class="cls-6" points="434.9 814.3 434.78 814.27 434.83 814.39 434.9 814.3"/><polygon class="cls-6" points="434.71 814.57 434.94 814.62 434.83 814.39 434.71 814.57"/><polygon class="cls-6" points="434.7 814.1 434.6 814.23 434.78 814.27 434.7 814.1"/><polygon class="cls-6" points="434.78 814.27 434.6 814.23 434.41 814.5 434.71 814.57 434.83 814.39 434.78 814.27"/><path class="cls-3" d="M435.06,814.65l85.54,184.93q18.94-.77,37.51-2.92L659.86,865.08Z"/><polygon class="cls-3" points="659.86 865.08 660.5 864.26 660.12 863.87 434.9 814.3 435.06 814.65 659.86 865.08"/><polygon class="cls-3" points="660.7 864 660.12 863.87 660.5 864.26 660.7 864"/><polygon class="cls-3" points="372.4 268.7 371.81 268.73 372.19 268.96 372.4 268.7"/><polygon class="cls-3" points="371.34 270.04 177.49 280.75 238.28 421.56 248.53 424.46 371.34 270.04"/><polygon class="cls-3" points="238.28 421.56 242.7 431.8 248.53 424.46 238.28 421.56"/><polygon class="cls-3" points="427.28 65.26 372.4 268.7 624.7 330.3 427.28 65.26"/><polygon class="cls-3" points="624.7 330.3 427.5 64.47 427.28 65.26 624.7 330.3"/><path class="cls-4" d="M659.86,865.08L558.12,996.65a496.65,496.65,0,0,0,177.26-55.42L661.7,865.5Z"/><path class="cls-4" d="M661.7,865.5l73.67,75.74,0.14-.07-73.24-75.54Z"/><polygon class="cls-4" points="659.86 865.08 661.7 865.5 660.5 864.26 659.86 865.08"/><polygon class="cls-4" points="660.5 864.26 661.7 865.5 662.28 865.63 660.7 864 660.5 864.26"/><polygon class="cls-11" points="94.4 587 428.37 628.91 240.14 434.48 94.4 587"/><polygon class="cls-11" points="242.7 431.8 240.14 434.48 428.37 628.91 433.9 629.6 242.7 431.8"/><path class="cls-13" d="M0.15,488Q0,494,0,500a504,504,0,0,0,5.54,74.61L94.4,587Z"/><path class="cls-8" d="M5.69,575.68A496.43,496.43,0,0,0,49.1,716.34L94.4,587Z"/><path class="cls-8" d="M5.54,574.61c0.05,0.36.1,0.72,0.16,1.08L94.4,587Z"/><path class="cls-11" d="M203.6,762.9l0.28,0.06,0.34-.11L142.6,749,55.91,729.95a500.19,500.19,0,0,0,41.65,66.8l74.07-23.54Z"/><polygon class="cls-11" points="203.65 763.03 203.88 762.96 203.6 762.9 203.65 763.03"/><polygon class="cls-11" points="142.6 749.03 204.22 762.85 204.7 762.7 142.6 749.03"/><polygon class="cls-6" points="373.8 269.9 371.34 270.04 248.53 424.46 259.08 427.45 624.7 330.3 372.4 268.7 372.19 268.96 373.8 269.9"/><polygon class="cls-6" points="248.53 424.46 242.7 431.8 259.08 427.45 248.53 424.46"/><polygon class="cls-14" points="624.7 330.3 259.08 427.45 518.14 500.81 624.7 330.3"/><polygon class="cls-14" points="513.49 508.35 513.4 508.4 513.45 508.42 513.49 508.35"/><polygon class="cls-14" points="513.4 508.5 513.4 508.4 518.14 500.81 259.08 427.45 242.7 431.8 513.4 508.5 513.4 508.5"/><path class="cls-4" d="M428.37,628.91L94.4,587,49.1,716.34q2.13,4.43,4.35,8.81L430,630.58Z"/><polygon class="cls-4" points="428.37 628.91 429.99 630.58 433.9 629.6 428.37 628.91"/><path class="cls-4" d="M233.58,427.71L27.73,335.4A496.28,496.28,0,0,0,9.59,402.12l227.23,28.93Z"/><polygon class="cls-4" points="233.58 427.71 236.82 431.05 242.7 431.8 233.58 427.71"/><polygon class="cls-15" points="908.41 619.57 525.81 511.99 532.84 715.6 907.61 620.78 908.41 619.57"/><polygon class="cls-15" points="513.52 508.44 513.45 508.42 513.4 508.5 513.4 508.5 513.52 508.44"/><polygon class="cls-15" points="513.4 508.5 520.6 718.7 532.84 715.6 525.81 511.99 513.4 508.5"/><polygon class="cls-15" points="908.41 619.57 907.61 620.78 909.26 620.36 908.82 619.68 908.41 619.57"/><polygon class="cls-15" points="910.1 620.1 909.93 620 908.82 619.68 909.26 620.36 910.3 620.1 910.05 620.03 910.1 620.1"/><polygon class="cls-15" points="525.81 511.89 525.81 511.99 908.41 619.57 908.41 619.57 525.81 511.89"/><polygon class="cls-15" points="525.81 511.89 513.52 508.44 513.4 508.5 513.4 508.5 525.81 511.99 525.81 511.89"/><polygon class="cls-15" points="908.41 619.57 908.41 619.57 908.82 619.68 908.82 619.68 908.41 619.57"/><polygon class="cls-15" points="910.05 620.03 910.3 620.1 910.05 620.03 910.05 620.03"/><polygon class="cls-15" points="908.82 619.68 909.93 620 909.93 620 908.82 619.68 908.82 619.68"/><polygon class="cls-15" points="910.1 620.1 910.05 620.03 909.93 620 910.1 620.1"/><polygon class="cls-15" points="910.05 620.03 910.05 620.03 909.93 620 909.93 620 910.05 620.03"/><polygon class="cls-15" points="513.4 508.4 513.4 508.5 513.45 508.42 513.4 508.4"/><path class="cls-8" d="M223.6,417.4l14.63,4.14L176.86,280.78l-0.36,0-49-114.36a499.65,499.65,0,0,0-99.64,168.5l205.65,92.73Z"/><polygon class="cls-8" points="238.23 421.54 223.6 417.4 233.54 427.67 242.7 431.8 238.23 421.54"/><polygon class="cls-8" points="177.49 280.75 176.86 280.78 238.23 421.54 238.28 421.56 177.49 280.75"/><polygon class="cls-8" points="238.28 421.56 238.23 421.54 242.7 431.8 238.28 421.56"/><path class="cls-13" d="M372.4,268.7L419.91,55.37,388,12.59A499,499,0,0,0,152.57,140.44l213.5,124.93Z"/><path class="cls-13" d="M438.16,24.94l-29-16.69-0.09,0L438.14,25Z"/><path class="cls-13" d="M444,3.1q-17.64,2-34.9,5.14l29,16.69Z"/><path class="cls-13" d="M420.1,54.5l7.39,10L438.14,25,409.05,8.26q-10.58,1.95-21,4.33l31.86,42.78Z"/><polygon class="cls-13" points="419.91 55.37 372.4 268.7 427.28 65.26 419.91 55.37"/><polygon class="cls-13" points="427.5 64.47 420.1 54.5 419.91 55.37 427.28 65.26 427.5 64.47"/><path class="cls-9" d="M371.81,268.73l-5.74-3.36-222-116.55q-8.27,8.39-16.15,17.15l49,113.49Z"/><polygon class="cls-9" points="371.34 270.04 372.19 268.96 371.81 268.73 176.94 279.46 177.49 280.75 371.34 270.04"/><polygon class="cls-9" points="372.19 268.96 371.34 270.04 373.8 269.9 372.19 268.96"/><path class="cls-9" d="M176.86,280.78l-0.56-1.28,0.64,0L127.95,166l-0.42.46,49,114.36Z"/><polygon class="cls-9" points="176.94 279.46 176.3 279.5 176.86 280.78 177.49 280.75 176.94 279.46"/><path class="cls-9" d="M152.57,140.44q-4.28,4.14-8.47,8.38l222,116.55Z"/><path class="cls-3" d="M240.14,434.48l-3.28-3.39L9.31,403.53A501.64,501.64,0,0,0,.15,488L94.4,587Z"/><polygon class="cls-3" points="236.86 431.09 240.14 434.48 242.7 431.8 236.86 431.09"/><path class="cls-3" d="M236.82,431.05L9.59,402.12l-0.28,1.42,227.55,27.56Z"/><polygon class="cls-3" points="236.82 431.05 236.86 431.09 242.7 431.8 236.82 431.05"/><polygon class="cls-9" points="800.86 456.67 624.7 330.3 631.89 446.96 800.86 456.67"/><polygon class="cls-9" points="800.97 456.68 800.95 456.66 800.93 456.68 800.97 456.68"/><polygon class="cls-9" points="800.87 456.67 800.91 456.64 624.7 330.3 800.86 456.67 800.87 456.67"/><polygon class="cls-9" points="800.87 456.67 800.93 456.68 800.95 456.66 800.91 456.64 800.87 456.67"/><polygon class="cls-9" points="800.86 456.67 631.89 446.96 631.9 447.1 631.88 447.11 800.84 456.69 800.87 456.68 800.86 456.67"/><polygon class="cls-9" points="800.91 456.69 801 456.7 800.97 456.68 800.93 456.68 800.91 456.69"/><polygon class="cls-9" points="800.84 456.69 800.89 456.69 800.87 456.68 800.84 456.69"/><polygon class="cls-9" points="800.87 456.68 800.87 456.67 800.86 456.67 800.87 456.68"/><polygon class="cls-9" points="800.89 456.69 800.91 456.69 800.93 456.68 800.87 456.67 800.87 456.68 800.89 456.69"/><polygon class="cls-7" points="524.55 502.63 571.55 478.32 631.44 447.24 630.9 446.9 631.69 446.94 624.7 330.3 518.19 500.83 524.55 502.63"/><polygon class="cls-7" points="524.55 502.63 518.19 500.83 513.49 508.35 524.55 502.63"/><polygon class="cls-7" points="631.44 447.24 571.55 478.32 631.53 447.29 631.44 447.24"/><polygon class="cls-7" points="631.79 447.16 631.88 447.11 631.7 447.1 631.79 447.16"/><polygon class="cls-7" points="631.69 446.94 630.9 446.9 631.44 447.24 631.7 447.1 631.69 446.94"/><polygon class="cls-7" points="631.79 447.16 631.7 447.1 631.44 447.24 631.53 447.29 631.79 447.16"/><polygon class="cls-7" points="518.19 500.83 624.7 330.3 518.14 500.81 518.19 500.83"/><polygon class="cls-7" points="518.19 500.83 518.14 500.81 513.4 508.4 513.49 508.35 518.19 500.83"/><polygon class="cls-7" points="631.89 446.96 624.7 330.3 631.69 446.94 631.89 446.96"/><polygon class="cls-7" points="631.88 447.11 631.9 447.1 631.89 446.96 631.69 446.94 631.7 447.1 631.88 447.11"/><path class="cls-2" d="M171.62,773.21L97.76,797A502.31,502.31,0,0,0,266.44,942.21L203.65,763Z"/><path class="cls-2" d="M203.65,763l62.8,179.17,1.31,0.69L203.65,763h0Z"/><polygon class="cls-2" points="171.62 773.21 203.65 763.03 203.6 762.9 171.62 773.21"/><polygon class="cls-2" points="203.65 763.03 203.65 763.03 203.6 762.9 203.65 763.03"/></svg>